<?xml version="1.0" encoding="utf-8"?>
<!-- Generator: Adobe Illustrator 19.2.0, SVG Export Plug-In . SVG Version: 6.00 Build 0)  -->
<svg version="1.1" id="btn_x5F_launch-site" xmlns="http://www.w3.org/2000/svg" xmlns:xlink="http://www.w3.org/1999/xlink"
	 x="0px" y="0px" viewBox="0 0 216 58" style="enable-background:new 0 0 216 58;" xml:space="preserve">
<style type="text/css">
	.st0{fill:#525252;}
	.st1{fill:#FFFFFF;}
</style>
<g>
	<path class="st0" d="M216,54c0,2.2-1.8,4-4,4H4c-2.2,0-4-1.8-4-4V4c0-2.2,1.8-4,4-4h208c2.2,0,4,1.8,4,4V54z"/>
</g>
<rect x="49.4" y="13.7" class="st1" width="0.9" height="31.1"/>
<g>
	<g>
		<path class="st1" d="M85.7,24v9.7h4.5c0.3,0,0.5,0.2,0.5,0.5c0,0.3-0.2,0.5-0.5,0.5h-4.9c-0.4,0-0.7-0.3-0.7-0.7V24
			c0-0.3,0.3-0.6,0.6-0.6C85.5,23.5,85.7,23.7,85.7,24z"/>
		<path class="st1" d="M98.6,29.1V34c0,0.3-0.1,0.5-0.5,0.7c-0.6,0.2-1.5,0.4-2.3,0.4c-1.9,0-3.2-0.7-3.2-2.4s1.5-2.4,3.1-2.4h1.7
			v-1.1c0-0.8-0.6-1.4-1.7-1.4c-0.6,0-1.1,0.1-1.6,0.4c-0.2,0.1-0.4,0.2-0.5,0.2c-0.2,0-0.5-0.2-0.5-0.5c0-0.2,0.1-0.4,0.3-0.4
			c0.6-0.3,1.4-0.6,2.3-0.6C97.3,26.7,98.6,27.5,98.6,29.1z M95.8,31.1c-1.2,0-2,0.4-2,1.4c0,1.1,0.8,1.4,2.1,1.4
			c0.6,0,1.1-0.1,1.7-0.3v-2.6H95.8z"/>
		<path class="st1" d="M107.7,27.2V34c0,0.3-0.2,0.5-0.5,0.7c-0.8,0.3-1.6,0.4-2.4,0.4c-2,0-3-1.1-3-2.9v-4.9c0-0.3,0.2-0.5,0.5-0.5
			c0.3,0,0.5,0.2,0.5,0.5v4.9c0,1.2,0.6,1.8,1.9,1.8c0.6,0,1.3-0.1,1.9-0.3v-6.5c0-0.3,0.2-0.5,0.5-0.5
			C107.5,26.7,107.7,26.9,107.7,27.2z"/>
		<path class="st1" d="M117,29.6v4.9c0,0.3-0.2,0.5-0.5,0.5c-0.3,0-0.5-0.2-0.5-0.5v-4.9c0-1.2-0.7-1.8-1.9-1.8
			c-0.7,0-1.3,0.1-1.9,0.3v6.5c0,0.3-0.2,0.5-0.5,0.5c-0.3,0-0.5-0.2-0.5-0.5v-6.7c0-0.3,0.2-0.6,0.5-0.7c0.8-0.2,1.6-0.4,2.4-0.4
			C116,26.7,117,27.8,117,29.6z"/>
		<path class="st1" d="M125.1,27.2c0.2,0.1,0.3,0.3,0.3,0.5c0,0.3-0.2,0.5-0.5,0.5c-0.2,0-0.3-0.1-0.6-0.2c-0.4-0.2-0.9-0.3-1.4-0.3
			c-1.1,0-1.8,0.7-1.8,1.9v2.4c0,1.2,0.7,1.9,1.8,1.9c0.6,0,1-0.1,1.4-0.3c0.2-0.1,0.4-0.2,0.5-0.2c0.3,0,0.5,0.2,0.5,0.5
			c0,0.2-0.1,0.4-0.3,0.5c-0.6,0.4-1.4,0.5-2.1,0.5c-1.8,0-3-1.1-3-2.9v-2.4c0-1.8,1.2-2.9,3-2.9C123.7,26.7,124.5,26.9,125.1,27.2z
			"/>
		<path class="st1" d="M128.9,24v3.3c0.6-0.4,1.4-0.6,2-0.6c1.8,0,2.8,1,2.8,2.9v4.9c0,0.3-0.2,0.5-0.5,0.5c-0.3,0-0.5-0.2-0.5-0.5
			v-4.9c0-1.2-0.7-1.8-1.8-1.8c-0.6,0-1.3,0.2-1.9,0.7v6.1c0,0.3-0.2,0.5-0.5,0.5c-0.3,0-0.5-0.2-0.5-0.5V24c0-0.3,0.2-0.5,0.5-0.5
			C128.7,23.5,128.9,23.7,128.9,24z"/>
		<path class="st1" d="M147.4,24c0.2,0.1,0.3,0.3,0.3,0.5c0,0.3-0.2,0.5-0.5,0.5c-0.2,0-0.3-0.1-0.5-0.1c-0.7-0.3-1.3-0.4-2.1-0.4
			c-1.2,0-2.1,0.8-2.1,1.7c0,1,0.5,1.4,1.5,1.9l1.9,0.9c1,0.5,2.2,1.2,2.2,3c0,1.9-1.6,3-3.4,3c-1.1,0-2-0.2-2.8-0.6
			c-0.2-0.1-0.4-0.3-0.4-0.5c0-0.3,0.2-0.5,0.5-0.5c0.1,0,0.2,0,0.5,0.1c0.7,0.3,1.3,0.5,2.2,0.5c1.2,0,2.3-0.7,2.3-1.9
			c0-1.1-0.6-1.6-1.7-2.1l-1.9-0.9c-1.1-0.6-1.9-1.3-1.9-2.8c0-1.6,1.4-2.8,3.3-2.8C145.8,23.5,146.6,23.6,147.4,24z"/>
		<path class="st1" d="M152.1,24.5c0,0.4-0.3,0.7-0.7,0.7c-0.4,0-0.7-0.3-0.7-0.7c0-0.4,0.3-0.7,0.7-0.7
			C151.7,23.8,152.1,24.1,152.1,24.5z M151.9,27.2v7.2c0,0.3-0.2,0.5-0.5,0.5c-0.3,0-0.5-0.2-0.5-0.5v-7.2c0-0.3,0.2-0.5,0.5-0.5
			C151.7,26.7,151.9,26.9,151.9,27.2z"/>
		<path class="st1" d="M156.4,24v2.8h1.9c0.3,0,0.5,0.2,0.5,0.5c0,0.3-0.2,0.5-0.5,0.5h-1.9v4.8c0,0.8,0.4,1.2,1.1,1.2
			c0.4,0,0.6-0.1,0.8-0.1c0.3,0,0.5,0.2,0.5,0.5c0,0.3-0.2,0.5-0.5,0.5c-0.3,0.1-0.6,0.1-0.9,0.1c-1.2,0-2.2-0.8-2.2-2.3V24
			c0-0.3,0.2-0.5,0.5-0.5C156.2,23.5,156.4,23.7,156.4,24z"/>
		<path class="st1" d="M166.8,29.6v0.9c0,0.3-0.3,0.7-0.7,0.7h-4.1v0.9c0,1.1,0.6,1.9,1.9,1.9c0.7,0,1.2-0.2,1.8-0.4
			c0.2-0.1,0.3-0.1,0.4-0.1c0.3,0,0.5,0.2,0.5,0.5c0,0.2-0.1,0.4-0.3,0.5c-0.7,0.3-1.7,0.5-2.4,0.5c-1.9,0-3-1.2-3-2.9v-2.4
			c0-1.8,1.2-2.9,3-2.9C165.6,26.7,166.8,27.9,166.8,29.6z M161.9,29.6v0.6h3.7v-0.6c0-1.2-0.6-1.9-1.9-1.9S161.9,28.4,161.9,29.6z"
			/>
	</g>
</g>
<path class="st1" d="M36.9,22.8H22.2v4.3h-6.6v10.1h14.7v-4.3h6.6V22.8z M28.9,35.8H17v-7.3h5.3v4.3h6.6V35.8z M28.9,31.5h-5.3v-3
	h5.3V31.5z M35.5,31.5h-5.3v-4.3h-6.6v-3h11.9V31.5z"/>
</svg>
