<?xml version="1.0" encoding="utf-8"?>
<!-- Generator: Adobe Illustrator 19.2.0, SVG Export Plug-In . SVG Version: 6.00 Build 0)  -->
<svg version="1.1" id="btn_x5F_facebook" xmlns="http://www.w3.org/2000/svg" xmlns:xlink="http://www.w3.org/1999/xlink" x="0px"
	 y="0px" viewBox="0 0 216 58" style="enable-background:new 0 0 216 58;" xml:space="preserve">
<style type="text/css">
	.st0{fill:#375DAA;}
	.st1{fill:#FFFFFF;}
</style>
<g>
	<path class="st0" d="M216,54c0,2.2-1.8,4-4,4H4c-2.2,0-4-1.8-4-4V4c0-2.2,1.8-4,4-4h208c2.2,0,4,1.8,4,4V54z"/>
</g>
<path class="st1" d="M30.5,29h-2.8v10.1h-4.2V29h-2v-3.6h2v-2.3c0-1.7,0.8-4.3,4.3-4.3l3.1,0v3.5h-2.3c-0.4,0-0.9,0.2-0.9,1v2.1h3.2
	L30.5,29z"/>
<rect x="49.4" y="13.7" class="st1" width="0.9" height="31.1"/>
<g>
	<g>
		<path class="st1" d="M78.7,27.1v4.3c0,2.3-1.5,3.6-3.7,3.6c-2.2,0-3.7-1.4-3.7-3.6v-4.3c0-2.3,1.5-3.6,3.7-3.6
			C77.2,23.5,78.7,24.9,78.7,27.1z M72.4,27v4.4c0,1.5,1,2.5,2.6,2.5c1.6,0,2.6-1,2.6-2.5V27c0-1.6-1-2.5-2.6-2.5
			C73.4,24.5,72.4,25.5,72.4,27z"/>
		<path class="st1" d="M84.5,23.6c0.3,0.1,0.4,0.2,0.4,0.5c0,0.3-0.2,0.5-0.5,0.5c-0.2,0-0.4-0.1-0.8-0.1c-0.7,0-1.1,0.5-1.1,1.1
			v1.3h1.9c0.3,0,0.5,0.2,0.5,0.5c0,0.3-0.2,0.5-0.5,0.5h-1.9v6.6c0,0.3-0.2,0.5-0.5,0.5c-0.3,0-0.5-0.2-0.5-0.5v-8.9
			c0-1.3,0.9-2.1,2.2-2.1C84,23.5,84.2,23.5,84.5,23.6z"/>
		<path class="st1" d="M89.9,23.6c0.3,0.1,0.4,0.2,0.4,0.5c0,0.3-0.2,0.5-0.5,0.5c-0.2,0-0.4-0.1-0.8-0.1c-0.7,0-1.1,0.5-1.1,1.1
			v1.3h1.9c0.3,0,0.5,0.2,0.5,0.5c0,0.3-0.2,0.5-0.5,0.5H88v6.6c0,0.3-0.2,0.5-0.5,0.5c-0.3,0-0.5-0.2-0.5-0.5v-8.9
			c0-1.3,0.9-2.1,2.2-2.1C89.4,23.5,89.6,23.5,89.9,23.6z"/>
		<path class="st1" d="M93.3,24.5c0,0.4-0.3,0.7-0.7,0.7c-0.4,0-0.7-0.3-0.7-0.7c0-0.4,0.3-0.7,0.7-0.7C93,23.8,93.3,24.1,93.3,24.5
			z M93.1,27.2v7.2c0,0.3-0.2,0.5-0.5,0.5c-0.3,0-0.5-0.2-0.5-0.5v-7.2c0-0.3,0.2-0.5,0.5-0.5C92.9,26.7,93.1,26.9,93.1,27.2z"/>
		<path class="st1" d="M101,27.2c0.2,0.1,0.3,0.3,0.3,0.5c0,0.3-0.2,0.5-0.5,0.5c-0.2,0-0.3-0.1-0.6-0.2c-0.4-0.2-0.9-0.3-1.4-0.3
			c-1.1,0-1.8,0.7-1.8,1.9v2.4c0,1.2,0.7,1.9,1.8,1.9c0.6,0,1-0.1,1.4-0.3c0.2-0.1,0.4-0.2,0.5-0.2c0.3,0,0.5,0.2,0.5,0.5
			c0,0.2-0.1,0.4-0.3,0.5c-0.6,0.4-1.4,0.5-2.1,0.5c-1.8,0-3-1.1-3-2.9v-2.4c0-1.8,1.2-2.9,3-2.9C99.6,26.7,100.4,26.9,101,27.2z"/>
		<path class="st1" d="M104.7,24.5c0,0.4-0.3,0.7-0.7,0.7c-0.4,0-0.7-0.3-0.7-0.7c0-0.4,0.3-0.7,0.7-0.7
			C104.3,23.8,104.7,24.1,104.7,24.5z M104.5,27.2v7.2c0,0.3-0.2,0.5-0.5,0.5c-0.3,0-0.5-0.2-0.5-0.5v-7.2c0-0.3,0.2-0.5,0.5-0.5
			C104.3,26.7,104.5,26.9,104.5,27.2z"/>
		<path class="st1" d="M113,29.1V34c0,0.3-0.1,0.5-0.5,0.7c-0.6,0.2-1.5,0.4-2.3,0.4c-1.9,0-3.2-0.7-3.2-2.4s1.5-2.4,3.1-2.4h1.7
			v-1.1c0-0.8-0.6-1.4-1.7-1.4c-0.6,0-1.1,0.1-1.6,0.4c-0.2,0.1-0.4,0.2-0.5,0.2c-0.2,0-0.5-0.2-0.5-0.5c0-0.2,0.1-0.4,0.3-0.4
			c0.6-0.3,1.4-0.6,2.3-0.6C111.7,26.7,113,27.5,113,29.1z M110.2,31.1c-1.2,0-2,0.4-2,1.4c0,1.1,0.8,1.4,2.1,1.4
			c0.6,0,1.1-0.1,1.7-0.3v-2.6H110.2z"/>
		<path class="st1" d="M117,24v10.5c0,0.3-0.2,0.5-0.5,0.5c-0.3,0-0.5-0.2-0.5-0.5V24c0-0.3,0.2-0.5,0.5-0.5
			C116.8,23.5,117,23.7,117,24z"/>
		<path class="st1" d="M130.3,23.6c0.3,0,0.5,0.2,0.5,0.5c0,0.3-0.2,0.5-0.5,0.5H126v3.8h4.1c0.3,0,0.5,0.2,0.5,0.5
			c0,0.3-0.2,0.5-0.5,0.5H126v4.9c0,0.3-0.2,0.6-0.6,0.6s-0.6-0.2-0.6-0.6V24.3c0-0.4,0.3-0.7,0.7-0.7H130.3z"/>
		<path class="st1" d="M138.3,29.1V34c0,0.3-0.1,0.5-0.5,0.7c-0.6,0.2-1.5,0.4-2.3,0.4c-1.9,0-3.2-0.7-3.2-2.4s1.5-2.4,3.1-2.4h1.7
			v-1.1c0-0.8-0.6-1.4-1.7-1.4c-0.6,0-1.1,0.1-1.6,0.4c-0.2,0.1-0.4,0.2-0.5,0.2c-0.2,0-0.5-0.2-0.5-0.5c0-0.2,0.1-0.4,0.3-0.4
			c0.6-0.3,1.4-0.6,2.3-0.6C137.1,26.7,138.3,27.5,138.3,29.1z M135.5,31.1c-1.2,0-2,0.4-2,1.4c0,1.1,0.8,1.4,2.1,1.4
			c0.6,0,1.1-0.1,1.7-0.3v-2.6H135.5z"/>
		<path class="st1" d="M146,27.2c0.2,0.1,0.3,0.3,0.3,0.5c0,0.3-0.2,0.5-0.5,0.5c-0.2,0-0.3-0.1-0.6-0.2c-0.4-0.2-0.9-0.3-1.4-0.3
			c-1.1,0-1.8,0.7-1.8,1.9v2.4c0,1.2,0.7,1.9,1.8,1.9c0.6,0,1-0.1,1.4-0.3c0.2-0.1,0.4-0.2,0.5-0.2c0.3,0,0.5,0.2,0.5,0.5
			c0,0.2-0.1,0.4-0.3,0.5c-0.6,0.4-1.4,0.5-2.1,0.5c-1.8,0-3-1.1-3-2.9v-2.4c0-1.8,1.2-2.9,3-2.9C144.7,26.7,145.4,26.9,146,27.2z"
			/>
		<path class="st1" d="M154.1,29.6v0.9c0,0.3-0.3,0.7-0.7,0.7h-4.1v0.9c0,1.1,0.6,1.9,1.9,1.9c0.7,0,1.2-0.2,1.8-0.4
			c0.2-0.1,0.3-0.1,0.4-0.1c0.3,0,0.5,0.2,0.5,0.5c0,0.2-0.1,0.4-0.3,0.5c-0.7,0.3-1.7,0.5-2.4,0.5c-1.9,0-3-1.2-3-2.9v-2.4
			c0-1.8,1.2-2.9,3-2.9C152.9,26.7,154.1,27.9,154.1,29.6z M149.2,29.6v0.6h3.7v-0.6c0-1.2-0.6-1.9-1.9-1.9S149.2,28.4,149.2,29.6z"
			/>
		<path class="st1" d="M157.9,24v3.3c0.6-0.4,1.4-0.6,2-0.6c1.7,0,2.9,1,2.9,2.9v2.5c0,2-1.2,2.9-3,2.9c-0.9,0-1.7-0.1-2.5-0.4
			c-0.3-0.1-0.5-0.3-0.5-0.7V24c0-0.3,0.2-0.5,0.5-0.5C157.7,23.5,157.9,23.7,157.9,24z M157.9,28.4v5.3c0.6,0.2,1.2,0.3,1.9,0.3
			c1.2,0,1.9-0.7,1.9-1.8v-2.6c0-1.2-0.7-1.8-1.9-1.8C159.1,27.7,158.4,28,157.9,28.4z"/>
		<path class="st1" d="M171.4,29.8v2.2c0,1.9-1.2,3.1-3.1,3.1c-1.9,0-3.1-1.1-3.1-3.1v-2.2c0-1.9,1.2-3.1,3.1-3.1
			C170.3,26.7,171.4,27.9,171.4,29.8z M166.3,29.7V32c0,1.3,0.8,2,2,2c1.2,0,2-0.7,2-2v-2.3c0-1.3-0.8-2-2-2
			C167.1,27.7,166.3,28.4,166.3,29.7z"/>
		<path class="st1" d="M180,29.8v2.2c0,1.9-1.2,3.1-3.1,3.1c-1.9,0-3.1-1.1-3.1-3.1v-2.2c0-1.9,1.2-3.1,3.1-3.1
			C178.9,26.7,180,27.9,180,29.8z M174.9,29.7V32c0,1.3,0.8,2,2,2c1.2,0,2-0.7,2-2v-2.3c0-1.3-0.8-2-2-2
			C175.8,27.7,174.9,28.4,174.9,29.7z"/>
		<path class="st1" d="M183.9,24v5.7l3.4-2.9c0.1-0.1,0.3-0.2,0.4-0.2c0.3,0,0.5,0.2,0.5,0.5c0,0.1,0,0.3-0.2,0.4l-3.3,2.7l3.5,3.7
			c0.1,0.1,0.2,0.2,0.2,0.4c0,0.3-0.2,0.5-0.5,0.5c-0.2,0-0.3,0-0.4-0.2l-3.5-3.8v3.5c0,0.3-0.2,0.5-0.5,0.5c-0.3,0-0.5-0.2-0.5-0.5
			V24c0-0.3,0.2-0.5,0.5-0.5S183.9,23.7,183.9,24z"/>
	</g>
</g>
</svg>
