<?xml version="1.0" encoding="utf-8"?>
<!-- Generator: Adobe Illustrator 19.2.0, SVG Export Plug-In . SVG Version: 6.00 Build 0)  -->
<svg version="1.1" id="btn_x5F_twitter" xmlns="http://www.w3.org/2000/svg" xmlns:xlink="http://www.w3.org/1999/xlink" x="0px"
	 y="0px" viewBox="0 0 216 58" style="enable-background:new 0 0 216 58;" xml:space="preserve">
<style type="text/css">
	.st0{fill:#40A2E0;}
	.st1{fill:#FFFFFF;}
</style>
<g>
	<path class="st0" d="M216,54c0,2.2-1.8,4-4,4H4c-2.2,0-4-1.8-4-4V4c0-2.2,1.8-4,4-4h208c2.2,0,4,1.8,4,4V54z"/>
</g>
<path class="st1" d="M35.3,23.3c-0.7,0.3-1.5,0.5-2.3,0.6c0.8-0.5,1.5-1.3,1.8-2.3c-0.8,0.5-1.7,0.8-2.6,1c-0.7-0.8-1.8-1.3-3-1.3
	c-2.3,0-4.1,1.8-4.1,4.1c0,0.3,0,0.6,0.1,0.9c-3.4-0.2-6.4-1.8-8.4-4.3c-0.4,0.6-0.6,1.3-0.6,2c0,1.4,0.7,2.7,1.8,3.4
	c-0.7,0-1.3-0.2-1.8-0.5c0,0,0,0,0,0.1c0,2,1.4,3.6,3.3,4c-0.3,0.1-0.7,0.1-1.1,0.1c-0.3,0-0.5,0-0.8-0.1c0.5,1.6,2,2.8,3.8,2.8
	c-1.4,1.1-3.2,1.7-5.1,1.7c-0.3,0-0.7,0-1-0.1c1.8,1.2,3.9,1.8,6.2,1.8c7.5,0,11.6-6.2,11.6-11.6c0-0.2,0-0.4,0-0.5
	C34.1,24.9,34.8,24.1,35.3,23.3z"/>
<rect x="49.4" y="13.7" class="st1" width="0.9" height="31.1"/>
<g>
	<g>
		<path class="st1" d="M86.4,27.1v4.3c0,2.3-1.5,3.6-3.7,3.6c-2.2,0-3.7-1.4-3.7-3.6v-4.3c0-2.3,1.5-3.6,3.7-3.6
			C84.9,23.5,86.4,24.9,86.4,27.1z M80.1,27v4.4c0,1.5,1,2.5,2.6,2.5c1.6,0,2.6-1,2.6-2.5V27c0-1.6-1-2.5-2.6-2.5
			C81.1,24.5,80.1,25.5,80.1,27z"/>
		<path class="st1" d="M92.6,23.6c0.3,0.1,0.4,0.2,0.4,0.5c0,0.3-0.2,0.5-0.5,0.5c-0.2,0-0.4-0.1-0.8-0.1c-0.7,0-1.1,0.5-1.1,1.1
			v1.3h1.9c0.3,0,0.5,0.2,0.5,0.5c0,0.3-0.2,0.5-0.5,0.5h-1.9v6.6c0,0.3-0.2,0.5-0.5,0.5c-0.3,0-0.5-0.2-0.5-0.5v-8.9
			c0-1.3,0.9-2.1,2.2-2.1C92,23.5,92.2,23.5,92.6,23.6z"/>
		<path class="st1" d="M98.3,23.6c0.3,0.1,0.4,0.2,0.4,0.5c0,0.3-0.2,0.5-0.5,0.5c-0.2,0-0.4-0.1-0.8-0.1c-0.7,0-1.1,0.5-1.1,1.1
			v1.3h1.9c0.3,0,0.5,0.2,0.5,0.5c0,0.3-0.2,0.5-0.5,0.5h-1.9v6.6c0,0.3-0.2,0.5-0.5,0.5s-0.5-0.2-0.5-0.5v-8.9
			c0-1.3,0.9-2.1,2.2-2.1C97.7,23.5,97.9,23.5,98.3,23.6z"/>
		<path class="st1" d="M102,24.5c0,0.4-0.3,0.7-0.7,0.7c-0.4,0-0.7-0.3-0.7-0.7c0-0.4,0.3-0.7,0.7-0.7C101.6,23.8,102,24.1,102,24.5
			z M101.8,27.2v7.2c0,0.3-0.2,0.5-0.5,0.5c-0.3,0-0.5-0.2-0.5-0.5v-7.2c0-0.3,0.2-0.5,0.5-0.5C101.6,26.7,101.8,26.9,101.8,27.2z"
			/>
		<path class="st1" d="M110,27.2c0.2,0.1,0.3,0.3,0.3,0.5c0,0.3-0.2,0.5-0.5,0.5c-0.2,0-0.3-0.1-0.6-0.2c-0.4-0.2-0.9-0.3-1.4-0.3
			c-1.1,0-1.8,0.7-1.8,1.9v2.4c0,1.2,0.7,1.9,1.8,1.9c0.6,0,1-0.1,1.4-0.3c0.2-0.1,0.4-0.2,0.5-0.2c0.3,0,0.5,0.2,0.5,0.5
			c0,0.2-0.1,0.4-0.3,0.5c-0.6,0.4-1.4,0.5-2.1,0.5c-1.8,0-3-1.1-3-2.9v-2.4c0-1.8,1.2-2.9,3-2.9C108.6,26.7,109.4,26.9,110,27.2z"
			/>
		<path class="st1" d="M114,24.5c0,0.4-0.3,0.7-0.7,0.7c-0.4,0-0.7-0.3-0.7-0.7c0-0.4,0.3-0.7,0.7-0.7C113.6,23.8,114,24.1,114,24.5
			z M113.8,27.2v7.2c0,0.3-0.2,0.5-0.5,0.5c-0.3,0-0.5-0.2-0.5-0.5v-7.2c0-0.3,0.2-0.5,0.5-0.5C113.6,26.7,113.8,26.9,113.8,27.2z"
			/>
		<path class="st1" d="M122.6,29.1V34c0,0.3-0.1,0.5-0.5,0.7c-0.6,0.2-1.5,0.4-2.3,0.4c-1.9,0-3.2-0.7-3.2-2.4s1.5-2.4,3.1-2.4h1.7
			v-1.1c0-0.8-0.6-1.4-1.7-1.4c-0.6,0-1.1,0.1-1.6,0.4c-0.2,0.1-0.4,0.2-0.5,0.2c-0.2,0-0.5-0.2-0.5-0.5c0-0.2,0.1-0.4,0.3-0.4
			c0.6-0.3,1.4-0.6,2.3-0.6C121.3,26.7,122.6,27.5,122.6,29.1z M119.8,31.1c-1.2,0-2,0.4-2,1.4c0,1.1,0.8,1.4,2.1,1.4
			c0.6,0,1.1-0.1,1.7-0.3v-2.6H119.8z"/>
		<path class="st1" d="M127,24v10.5c0,0.3-0.2,0.5-0.5,0.5c-0.3,0-0.5-0.2-0.5-0.5V24c0-0.3,0.2-0.5,0.5-0.5
			C126.7,23.5,127,23.7,127,24z"/>
		<path class="st1" d="M140.3,23.6c0.3,0,0.5,0.2,0.5,0.5c0,0.3-0.2,0.5-0.5,0.5h-2.7v9.7c0,0.3-0.3,0.6-0.6,0.6
			c-0.3,0-0.6-0.2-0.6-0.6v-9.7h-2.7c-0.3,0-0.5-0.2-0.5-0.5c0-0.3,0.2-0.5,0.5-0.5H140.3z"/>
		<path class="st1" d="M152.1,27.2c0,0.1,0,0.2,0,0.3l-2,7c-0.1,0.4-0.4,0.6-0.7,0.6s-0.6-0.2-0.7-0.5l-1.6-5.7l-1.6,5.7
			c-0.1,0.4-0.4,0.5-0.7,0.5c-0.3,0-0.6-0.2-0.7-0.6l-2-7c0-0.1,0-0.2,0-0.3c0-0.3,0.2-0.5,0.5-0.5c0.2,0,0.4,0.1,0.5,0.4l1.7,6.3
			l1.6-6.2c0.1-0.3,0.3-0.5,0.6-0.5c0.3,0,0.5,0.2,0.6,0.5l1.7,6.2l1.7-6.3c0.1-0.3,0.3-0.4,0.5-0.4
			C151.9,26.7,152.1,26.9,152.1,27.2z"/>
		<path class="st1" d="M156,24.5c0,0.4-0.3,0.7-0.7,0.7c-0.4,0-0.7-0.3-0.7-0.7c0-0.4,0.3-0.7,0.7-0.7C155.6,23.8,156,24.1,156,24.5
			z M155.8,27.2v7.2c0,0.3-0.2,0.5-0.5,0.5c-0.3,0-0.5-0.2-0.5-0.5v-7.2c0-0.3,0.2-0.5,0.5-0.5C155.6,26.7,155.8,26.9,155.8,27.2z"
			/>
		<path class="st1" d="M160.3,24v2.8h1.9c0.3,0,0.5,0.2,0.5,0.5c0,0.3-0.2,0.5-0.5,0.5h-1.9v4.8c0,0.8,0.4,1.2,1.1,1.2
			c0.4,0,0.6-0.1,0.8-0.1c0.3,0,0.5,0.2,0.5,0.5c0,0.3-0.2,0.5-0.5,0.5c-0.3,0.1-0.6,0.1-0.9,0.1c-1.2,0-2.2-0.8-2.2-2.3V24
			c0-0.3,0.2-0.5,0.5-0.5C160.1,23.5,160.3,23.7,160.3,24z"/>
		<path class="st1" d="M166.2,24v2.8h1.9c0.3,0,0.5,0.2,0.5,0.5c0,0.3-0.2,0.5-0.5,0.5h-1.9v4.8c0,0.8,0.4,1.2,1.1,1.2
			c0.4,0,0.6-0.1,0.8-0.1c0.3,0,0.5,0.2,0.5,0.5c0,0.3-0.2,0.5-0.5,0.5c-0.3,0.1-0.6,0.1-0.9,0.1c-1.2,0-2.2-0.8-2.2-2.3V24
			c0-0.3,0.2-0.5,0.5-0.5C166,23.5,166.2,23.7,166.2,24z"/>
		<path class="st1" d="M176.6,29.6v0.9c0,0.3-0.3,0.7-0.7,0.7h-4.1v0.9c0,1.1,0.6,1.9,1.9,1.9c0.7,0,1.2-0.2,1.8-0.4
			c0.2-0.1,0.3-0.1,0.4-0.1c0.3,0,0.5,0.2,0.5,0.5c0,0.2-0.1,0.4-0.3,0.5c-0.7,0.3-1.7,0.5-2.4,0.5c-1.9,0-3-1.2-3-2.9v-2.4
			c0-1.8,1.2-2.9,3-2.9C175.5,26.7,176.6,27.9,176.6,29.6z M171.8,29.6v0.6h3.7v-0.6c0-1.2-0.6-1.9-1.9-1.9S171.8,28.4,171.8,29.6z"
			/>
		<path class="st1" d="M182.9,26.8c0.3,0.1,0.4,0.3,0.4,0.5c0,0.3-0.2,0.5-0.5,0.5c-0.2,0-0.5-0.1-1-0.1c-0.6,0-1.1,0.4-1.1,1.2v5.6
			c0,0.3-0.2,0.5-0.5,0.5c-0.3,0-0.5-0.2-0.5-0.5v-5.6c0-1.3,0.9-2.2,2.1-2.2C182.2,26.7,182.5,26.7,182.9,26.8z"/>
	</g>
</g>
</svg>
