<?xml version="1.0" encoding="utf-8"?>
<!-- Generator: Adobe Illustrator 19.2.0, SVG Export Plug-In . SVG Version: 6.00 Build 0)  -->
<svg version="1.1" id="btn_x5F_facebook" xmlns="http://www.w3.org/2000/svg" xmlns:xlink="http://www.w3.org/1999/xlink" x="0px"
	 y="0px" viewBox="0 0 764 164" style="enable-background:new 0 0 764 164;" xml:space="preserve">
<style type="text/css">
	.st0{fill:#FFFFFF;}
	.st1{fill:#0E5DAD;}
</style>
<g>
	<path class="st0" d="M764,152.6c0,6.2-5.1,11.4-11.4,11.4H11.4C5.1,164,0,158.9,0,152.6V11.4C0,5.1,5.1,0,11.4,0h741.3
		c6.2,0,11.4,5.1,11.4,11.4V152.6z"/>
</g>
<path class="st1" d="M98.1,82H90v28.8H78V82h-5.7V71.8H78v-6.6c0-4.7,2.2-12.1,12.1-12.1l8.9,0.1V63h-6.5c-1,0-2.6,0.5-2.6,2.8v6
	h9.1L98.1,82z"/>
<rect x="163.7" y="38.4" class="st1" width="2.7" height="88.3"/>
<g>
	<g>
		<path class="st1" d="M311,76.6v12.1c0,6.4-4.1,10.4-10.5,10.4s-10.5-4-10.5-10.4V76.6c0-6.4,4.1-10.3,10.5-10.3S311,70.2,311,76.6
			z M293.1,76.4V89c0,4.4,2.8,7.1,7.3,7.1s7.4-2.8,7.4-7.1V76.4c0-4.4-2.9-7.1-7.4-7.1S293.1,72,293.1,76.4z"/>
		<path class="st1" d="M327.7,66.5c0.7,0.2,1.3,0.6,1.3,1.4c0,0.8-0.6,1.3-1.4,1.3c-0.6,0-1-0.2-2.3-0.2c-2,0-3.2,1.4-3.2,3v3.8h5.3
			c1,0,1.5,0.6,1.5,1.5c0,0.8-0.6,1.5-1.5,1.5h-5.3v18.7c0,1-0.7,1.5-1.5,1.5c-0.9,0-1.5-0.6-1.5-1.5V72.4c0-3.8,2.5-6.1,6.1-6.1
			C326.1,66.3,326.7,66.4,327.7,66.5z"/>
		<path class="st1" d="M343.1,66.5c0.7,0.2,1.3,0.6,1.3,1.4c0,0.8-0.6,1.3-1.4,1.3c-0.6,0-1-0.2-2.3-0.2c-2,0-3.2,1.4-3.2,3v3.8h5.3
			c1,0,1.5,0.6,1.5,1.5c0,0.8-0.6,1.5-1.5,1.5h-5.3v18.7c0,1-0.7,1.5-1.5,1.5c-0.9,0-1.5-0.6-1.5-1.5V72.4c0-3.8,2.5-6.1,6.1-6.1
			C341.5,66.3,342.1,66.4,343.1,66.5z"/>
		<path class="st1" d="M352.6,69.3c0,1-0.9,2-2,2c-1.1,0-2-0.9-2-2c0-1.1,0.9-2,2-2C351.7,67.3,352.6,68.2,352.6,69.3z M352.2,77
			v20.6c0,0.9-0.7,1.5-1.5,1.5c-0.9,0-1.5-0.6-1.5-1.5V77c0-0.9,0.6-1.5,1.5-1.5C351.5,75.5,352.2,76.1,352.2,77z"/>
		<path class="st1" d="M374.5,76.9c0.5,0.3,0.9,0.8,0.9,1.3c0,0.8-0.6,1.4-1.4,1.4c-0.6,0-1-0.2-1.6-0.5c-1.1-0.5-2.5-0.8-4-0.8
			c-3.2,0-5.2,2-5.2,5.5v6.9c0,3.5,2,5.5,5.2,5.5c1.6,0,3-0.4,4-0.8c0.6-0.3,1-0.5,1.5-0.5c0.8,0,1.5,0.6,1.5,1.5
			c0,0.5-0.3,1-0.9,1.3c-1.7,1-3.9,1.4-6.1,1.4c-5.1,0-8.4-3.2-8.4-8.4v-6.9c0-5.2,3.4-8.4,8.4-8.4C370.6,75.5,372.8,76,374.5,76.9z
			"/>
		<path class="st1" d="M384.9,69.3c0,1-0.9,2-2,2c-1.1,0-2-0.9-2-2c0-1.1,0.9-2,2-2C384,67.3,384.9,68.2,384.9,69.3z M384.5,77v20.6
			c0,0.9-0.7,1.5-1.5,1.5c-0.9,0-1.5-0.6-1.5-1.5V77c0-0.9,0.6-1.5,1.5-1.5C383.8,75.5,384.5,76.1,384.5,77z"/>
		<path class="st1" d="M408.6,82.2v14c0,0.8-0.4,1.5-1.3,1.9c-1.8,0.6-4.2,1-6.6,1c-5.4,0-9-2-9-7c0-5,4.1-6.9,8.9-6.9h4.8v-3
			c0-2.3-1.8-3.9-4.8-3.9c-1.6,0-3.1,0.3-4.5,1c-0.5,0.3-1,0.5-1.5,0.5c-0.7,0-1.4-0.6-1.4-1.4c0-0.5,0.3-1,0.7-1.3
			c1.6-0.9,4-1.7,6.6-1.7C405,75.5,408.6,77.7,408.6,82.2z M400.6,88.1c-3.3,0-5.7,1.1-5.7,4.1c0,3.2,2.4,4,5.9,4
			c1.6,0,3.2-0.3,4.8-0.7v-7.4H400.6z"/>
		<path class="st1" d="M420.1,67.9v29.7c0,0.9-0.6,1.5-1.5,1.5c-0.9,0-1.5-0.6-1.5-1.5V67.9c0-0.9,0.7-1.5,1.5-1.5
			C419.5,66.3,420.1,66.9,420.1,67.9z"/>
		<path class="st1" d="M457.9,66.8c0.9,0,1.5,0.7,1.5,1.5c0,0.9-0.6,1.5-1.5,1.5h-12.3v10.8h11.7c0.9,0,1.5,0.6,1.5,1.5
			c0,0.9-0.6,1.5-1.5,1.5h-11.7v13.9c0,1-0.7,1.6-1.6,1.6s-1.6-0.6-1.6-1.6V68.7c0-1.1,0.9-2,2-2H457.9z"/>
		<path class="st1" d="M480.7,82.2v14c0,0.8-0.4,1.5-1.3,1.9c-1.8,0.6-4.2,1-6.6,1c-5.4,0-9-2-9-7c0-5,4.1-6.9,8.9-6.9h4.8v-3
			c0-2.3-1.8-3.9-4.8-3.9c-1.6,0-3.1,0.3-4.6,1c-0.5,0.3-1,0.5-1.5,0.5c-0.7,0-1.4-0.6-1.4-1.4c0-0.5,0.3-1,0.7-1.3
			c1.6-0.9,4-1.7,6.6-1.7C477.1,75.5,480.7,77.7,480.7,82.2z M472.7,88.1c-3.3,0-5.7,1.1-5.7,4.1c0,3.2,2.4,4,5.9,4
			c1.6,0,3.2-0.3,4.8-0.7v-7.4H472.7z"/>
		<path class="st1" d="M502.7,76.9c0.5,0.3,0.9,0.8,0.9,1.3c0,0.8-0.6,1.4-1.4,1.4c-0.6,0-1-0.2-1.6-0.5c-1.1-0.5-2.5-0.8-4-0.8
			c-3.2,0-5.2,2-5.2,5.5v6.9c0,3.5,2,5.5,5.2,5.5c1.6,0,3-0.4,4-0.8c0.6-0.3,1-0.5,1.5-0.5c0.8,0,1.5,0.6,1.5,1.5
			c0,0.5-0.3,1-0.9,1.3c-1.7,1-3.9,1.4-6.1,1.4c-5.1,0-8.4-3.2-8.4-8.4v-6.9c0-5.2,3.4-8.4,8.4-8.4C498.8,75.5,500.9,76,502.7,76.9z
			"/>
		<path class="st1" d="M525.5,83.8v2.6c0,1-0.7,2-2,2h-11.7v2.5c0,3,1.7,5.4,5.3,5.4c2,0,3.5-0.5,5.1-1c0.5-0.2,0.8-0.3,1.1-0.3
			c0.8,0,1.5,0.6,1.5,1.4c0,0.6-0.3,1-0.9,1.3c-2,0.9-4.8,1.5-6.7,1.5c-5.3,0-8.4-3.5-8.4-8.4v-6.9c0-5.1,3.3-8.4,8.4-8.4
			C522.2,75.5,525.5,78.8,525.5,83.8z M511.7,83.7v1.8h10.6v-1.7c0-3.4-1.8-5.5-5.3-5.5C513.5,78.3,511.7,80.4,511.7,83.7z"/>
		<path class="st1" d="M536.3,67.9v9.4c1.8-1.2,3.9-1.8,5.6-1.8c4.7,0,8.1,2.8,8.1,8.3v7.1c0,5.6-3.4,8.3-8.4,8.3
			c-2.5,0-4.9-0.4-7.1-1.2c-0.8-0.3-1.3-1-1.3-1.9V67.9c0-0.9,0.7-1.5,1.5-1.5C535.7,66.3,536.3,66.9,536.3,67.9z M536.3,80.3v15.2
			c1.7,0.5,3.5,0.8,5.3,0.8c3.4,0,5.3-2,5.3-5.2v-7.5c0-3.3-1.9-5.2-5.3-5.2C539.7,78.3,537.8,79,536.3,80.3z"/>
		<path class="st1" d="M574.9,84.2v6.1c0,5.4-3.3,8.7-8.8,8.7c-5.4,0-8.8-3.2-8.8-8.7v-6.1c0-5.5,3.4-8.8,8.8-8.8
			C571.5,75.5,574.9,78.8,574.9,84.2z M560.3,84v6.6c0,3.6,2.4,5.6,5.7,5.6c3.4,0,5.7-2,5.7-5.6V84c0-3.6-2.3-5.7-5.7-5.7
			C562.7,78.3,560.3,80.4,560.3,84z"/>
		<path class="st1" d="M599.4,84.2v6.1c0,5.4-3.3,8.7-8.8,8.7c-5.4,0-8.8-3.2-8.8-8.7v-6.1c0-5.5,3.4-8.8,8.8-8.8
			C596,75.5,599.4,78.8,599.4,84.2z M584.8,84v6.6c0,3.6,2.4,5.6,5.7,5.6c3.4,0,5.7-2,5.7-5.6V84c0-3.6-2.3-5.7-5.7-5.7
			C587.2,78.3,584.8,80.4,584.8,84z"/>
		<path class="st1" d="M610.2,67.9v16.2l9.6-8.2c0.4-0.3,0.8-0.5,1.2-0.5c0.8,0,1.5,0.6,1.5,1.5c0,0.4-0.1,0.8-0.6,1.2l-9.4,7.8
			l9.9,10.6c0.3,0.3,0.5,0.6,0.5,1c0,0.8-0.5,1.5-1.5,1.5c-0.5,0-0.8-0.1-1.2-0.5l-10-10.9v9.9c0,0.9-0.7,1.5-1.5,1.5
			c-0.9,0-1.5-0.6-1.5-1.5V67.9c0-0.9,0.6-1.5,1.5-1.5S610.2,66.9,610.2,67.9z"/>
	</g>
</g>
</svg>
