<?xml version="1.0" encoding="utf-8"?>
<!-- Generator: Adobe Illustrator 19.2.0, SVG Export Plug-In . SVG Version: 6.00 Build 0)  -->
<svg version="1.1" id="btn_x5F_twitter" xmlns="http://www.w3.org/2000/svg" xmlns:xlink="http://www.w3.org/1999/xlink" x="0px"
	 y="0px" viewBox="0 0 764 164" style="enable-background:new 0 0 764 164;" xml:space="preserve">
<style type="text/css">
	.st0{fill:#FFFFFF;}
	.st1{fill:#00A2E2;}
</style>
<g>
	<path class="st0" d="M764,152.6c0,6.2-5.1,11.4-11.4,11.4H11.4C5.1,164,0,158.9,0,152.6V11.4C0,5.1,5.1,0,11.4,0h741.3
		c6.2,0,11.4,5.1,11.4,11.4V152.6z"/>
</g>
<path class="st1" d="M111.8,65.9c-2.1,0.9-4.3,1.5-6.7,1.8c2.4-1.4,4.2-3.7,5.1-6.4c-2.2,1.3-4.7,2.3-7.4,2.8
	c-2.1-2.3-5.1-3.7-8.5-3.7c-6.4,0-11.6,5.2-11.6,11.6c0,0.9,0.1,1.8,0.3,2.6c-9.6-0.5-18.2-5.1-23.9-12.1c-1,1.7-1.6,3.7-1.6,5.8
	c0,4,2,7.6,5.2,9.6c-1.9-0.1-3.7-0.6-5.3-1.5c0,0,0,0.1,0,0.1c0,5.6,4,10.3,9.3,11.4c-1,0.3-2,0.4-3.1,0.4c-0.7,0-1.5-0.1-2.2-0.2
	c1.5,4.6,5.8,8,10.8,8.1c-4,3.1-9,5-14.4,5c-0.9,0-1.9-0.1-2.8-0.2c5.1,3.3,11.2,5.2,17.8,5.2c21.3,0,33-17.7,33-33c0-0.5,0-1,0-1.5
	C108.3,70.2,110.3,68.2,111.8,65.9z"/>
<rect x="163.7" y="38.4" class="st1" width="2.7" height="88.3"/>
<g>
	<g>
		<path class="st1" d="M332.9,76.6v12.1c0,6.4-4.1,10.4-10.5,10.4s-10.5-4-10.5-10.4V76.6c0-6.4,4.1-10.3,10.5-10.3
			S332.9,70.2,332.9,76.6z M315,76.4V89c0,4.4,2.8,7.1,7.3,7.1s7.4-2.8,7.4-7.1V76.4c0-4.4-2.9-7.1-7.4-7.1S315,72,315,76.4z"/>
		<path class="st1" d="M350.5,66.5c0.7,0.2,1.3,0.6,1.3,1.4c0,0.8-0.6,1.3-1.4,1.3c-0.6,0-1-0.2-2.3-0.2c-2,0-3.2,1.4-3.2,3v3.8h5.3
			c1,0,1.5,0.6,1.5,1.5c0,0.8-0.6,1.5-1.5,1.5h-5.3v18.7c0,1-0.7,1.5-1.5,1.5c-0.9,0-1.5-0.6-1.5-1.5V72.4c0-3.8,2.5-6.1,6.1-6.1
			C348.9,66.3,349.5,66.4,350.5,66.5z"/>
		<path class="st1" d="M366.8,66.5c0.7,0.2,1.3,0.6,1.3,1.4c0,0.8-0.6,1.3-1.4,1.3c-0.6,0-1-0.2-2.3-0.2c-2,0-3.2,1.4-3.2,3v3.8h5.3
			c1,0,1.5,0.6,1.5,1.5c0,0.8-0.6,1.5-1.5,1.5h-5.3v18.7c0,1-0.7,1.5-1.5,1.5c-0.9,0-1.5-0.6-1.5-1.5V72.4c0-3.8,2.5-6.1,6.1-6.1
			C365.2,66.3,365.8,66.4,366.8,66.5z"/>
		<path class="st1" d="M377.3,69.3c0,1-0.9,2-2,2c-1.1,0-2-0.9-2-2c0-1.1,0.9-2,2-2C376.3,67.3,377.3,68.2,377.3,69.3z M376.8,77
			v20.6c0,0.9-0.7,1.5-1.5,1.5c-0.9,0-1.5-0.6-1.5-1.5V77c0-0.9,0.6-1.5,1.5-1.5C376.2,75.5,376.8,76.1,376.8,77z"/>
		<path class="st1" d="M400.1,76.9c0.5,0.3,0.9,0.8,0.9,1.3c0,0.8-0.6,1.4-1.4,1.4c-0.6,0-1-0.2-1.6-0.5c-1.1-0.5-2.5-0.8-4-0.8
			c-3.2,0-5.2,2-5.2,5.5v6.9c0,3.5,2,5.5,5.2,5.5c1.6,0,3-0.4,4-0.8c0.6-0.3,1-0.5,1.5-0.5c0.8,0,1.5,0.6,1.5,1.5
			c0,0.5-0.3,1-0.9,1.3c-1.7,1-3.9,1.4-6.1,1.4c-5.1,0-8.4-3.2-8.4-8.4v-6.9c0-5.2,3.4-8.4,8.4-8.4C396.2,75.5,398.3,76,400.1,76.9z
			"/>
		<path class="st1" d="M411.4,69.3c0,1-0.9,2-2,2c-1.1,0-2-0.9-2-2c0-1.1,0.9-2,2-2C410.5,67.3,411.4,68.2,411.4,69.3z M411,77v20.6
			c0,0.9-0.7,1.5-1.5,1.5c-0.9,0-1.5-0.6-1.5-1.5V77c0-0.9,0.6-1.5,1.5-1.5C410.3,75.5,411,76.1,411,77z"/>
		<path class="st1" d="M436,82.2v14c0,0.8-0.4,1.5-1.3,1.9c-1.8,0.6-4.2,1-6.6,1c-5.4,0-9-2-9-7c0-5,4.1-6.9,8.9-6.9h4.8v-3
			c0-2.3-1.8-3.9-4.8-3.9c-1.6,0-3.1,0.3-4.6,1c-0.5,0.3-1,0.5-1.5,0.5c-0.7,0-1.4-0.6-1.4-1.4c0-0.5,0.3-1,0.7-1.3
			c1.6-0.9,4-1.7,6.6-1.7C432.4,75.5,436,77.7,436,82.2z M427.9,88.1c-3.3,0-5.7,1.1-5.7,4.1c0,3.2,2.4,4,5.9,4
			c1.6,0,3.2-0.3,4.8-0.7v-7.4H427.9z"/>
		<path class="st1" d="M448.4,67.9v29.7c0,0.9-0.6,1.5-1.5,1.5c-0.9,0-1.5-0.6-1.5-1.5V67.9c0-0.9,0.7-1.5,1.5-1.5
			C447.7,66.3,448.4,66.9,448.4,67.9z"/>
		<path class="st1" d="M486.4,66.8c0.9,0,1.5,0.7,1.5,1.5c0,0.9-0.7,1.5-1.5,1.5h-7.7v27.7c0,0.9-0.7,1.6-1.6,1.6
			c-0.9,0-1.6-0.7-1.6-1.6V69.8h-7.6c-0.9,0-1.5-0.7-1.5-1.5c0-0.8,0.6-1.5,1.5-1.5H486.4z"/>
		<path class="st1" d="M519.9,77c0,0.2,0,0.5-0.1,0.7L514,97.5c-0.3,1.1-1,1.6-2,1.6c-1,0-1.6-0.5-1.9-1.5l-4.5-16.2L501,97.6
			c-0.3,1.1-1,1.5-2,1.5c-0.9,0-1.6-0.5-1.9-1.6l-5.8-19.8c-0.1-0.2-0.1-0.5-0.1-0.7c0-0.8,0.5-1.5,1.5-1.5c0.7,0,1.3,0.3,1.5,1.1
			l4.9,18l4.7-17.7c0.2-0.9,0.9-1.4,1.8-1.4c0.9,0,1.5,0.5,1.8,1.4l4.7,17.6l4.9-17.9c0.2-0.8,0.8-1.1,1.5-1.1
			C519.3,75.5,519.9,76.2,519.9,77z"/>
		<path class="st1" d="M530.9,69.3c0,1-0.9,2-2,2c-1.1,0-2-0.9-2-2c0-1.1,0.9-2,2-2C530,67.3,530.9,68.2,530.9,69.3z M530.5,77v20.6
			c0,0.9-0.7,1.5-1.5,1.5c-0.9,0-1.5-0.6-1.5-1.5V77c0-0.9,0.6-1.5,1.5-1.5C529.8,75.5,530.5,76.1,530.5,77z"/>
		<path class="st1" d="M543.2,67.9v8.1h5.3c1,0,1.5,0.6,1.5,1.5c0,0.8-0.6,1.5-1.5,1.5h-5.3v13.8c0,2.4,1.1,3.5,3.1,3.5
			c1.2,0,1.6-0.2,2.2-0.2c0.8,0,1.5,0.5,1.5,1.5c0,0.8-0.5,1.3-1.3,1.5c-1,0.2-1.6,0.2-2.5,0.2c-3.5,0-6.1-2.2-6.1-6.5V67.9
			c0-0.9,0.7-1.5,1.5-1.5C542.6,66.3,543.2,66.9,543.2,67.9z"/>
		<path class="st1" d="M560.1,67.9v8.1h5.3c1,0,1.5,0.6,1.5,1.5c0,0.8-0.6,1.5-1.5,1.5h-5.3v13.8c0,2.4,1.1,3.5,3.1,3.5
			c1.2,0,1.6-0.2,2.2-0.2c0.8,0,1.5,0.5,1.5,1.5c0,0.8-0.5,1.3-1.3,1.5c-1,0.2-1.6,0.2-2.5,0.2c-3.5,0-6.1-2.2-6.1-6.5V67.9
			c0-0.9,0.7-1.5,1.5-1.5C559.5,66.3,560.1,66.9,560.1,67.9z"/>
		<path class="st1" d="M589.6,83.8v2.6c0,1-0.7,2-2,2h-11.7v2.5c0,3,1.7,5.4,5.3,5.4c2,0,3.5-0.5,5.1-1c0.5-0.2,0.8-0.3,1.1-0.3
			c0.8,0,1.5,0.6,1.5,1.4c0,0.6-0.3,1-0.9,1.3c-2,0.9-4.8,1.5-6.7,1.5c-5.3,0-8.4-3.5-8.4-8.4v-6.9c0-5.1,3.3-8.4,8.4-8.4
			C586.4,75.5,589.6,78.8,589.6,83.8z M575.8,83.7v1.8h10.6v-1.7c0-3.4-1.8-5.5-5.3-5.5C577.7,78.3,575.8,80.4,575.8,83.7z"/>
		<path class="st1" d="M607.6,75.8c0.8,0.2,1.3,0.7,1.3,1.5c0,0.8-0.6,1.4-1.5,1.4c-0.5,0-1.5-0.3-2.9-0.3c-1.8,0-3.1,1.3-3.1,3.4
			v15.8c0,0.9-0.6,1.5-1.5,1.5c-0.9,0-1.5-0.6-1.5-1.5V81.7c0-3.8,2.5-6.2,6.1-6.2C605.5,75.5,606.5,75.5,607.6,75.8z"/>
	</g>
</g>
</svg>
