<?xml version="1.0" encoding="utf-8"?>
<!-- Generator: Adobe Illustrator 19.2.0, SVG Export Plug-In . SVG Version: 6.00 Build 0)  -->
<svg version="1.1" id="btn_x5F_launch-site" xmlns="http://www.w3.org/2000/svg" xmlns:xlink="http://www.w3.org/1999/xlink"
	 x="0px" y="0px" viewBox="0 0 764 164" style="enable-background:new 0 0 764 164;" xml:space="preserve">
<style type="text/css">
	.st0{fill:#515151;}
	.st1{fill:#FFFFFF;}
</style>
<g>
	<path class="st0" d="M764,152.6c0,6.2-5.1,11.4-11.4,11.4H11.4C5.1,164,0,158.9,0,152.6V11.4C0,5.1,5.1,0,11.4,0h741.3
		c6.2,0,11.4,5.1,11.4,11.4V152.6z"/>
</g>
<rect x="163.7" y="38.4" class="st1" width="2.7" height="88.3"/>
<g>
	<g>
		<path class="st1" d="M331.1,67.9v27.7h12.7c0.9,0,1.5,0.7,1.5,1.5c0,0.9-0.6,1.5-1.5,1.5h-13.9c-1.1,0-2-0.9-2-2V67.9
			c0-0.9,0.7-1.6,1.6-1.6S331.1,67,331.1,67.9z"/>
		<path class="st1" d="M367.7,82.2v14c0,0.8-0.4,1.5-1.3,1.9c-1.8,0.6-4.2,1-6.6,1c-5.4,0-9-2-9-7c0-5,4.1-6.9,8.9-6.9h4.8v-3
			c0-2.3-1.8-3.9-4.8-3.9c-1.6,0-3.1,0.3-4.5,1c-0.5,0.3-1,0.5-1.5,0.5c-0.7,0-1.4-0.6-1.4-1.4c0-0.5,0.3-1,0.7-1.3
			c1.6-0.9,4-1.7,6.6-1.7C364.1,75.5,367.7,77.7,367.7,82.2z M359.7,88.1c-3.3,0-5.7,1.1-5.7,4.1c0,3.2,2.4,4,5.9,4
			c1.6,0,3.2-0.3,4.8-0.7v-7.4H359.7z"/>
		<path class="st1" d="M393.6,77v19.1c0,0.9-0.5,1.5-1.5,1.9c-2.2,0.7-4.5,1.1-6.9,1.1c-5.6,0-8.4-3-8.4-8.1V77
			c0-0.9,0.6-1.5,1.5-1.5c0.9,0,1.5,0.6,1.5,1.5v14.1c0,3.3,1.8,5.2,5.3,5.2c1.8,0,3.6-0.3,5.3-0.8V77c0-0.9,0.7-1.5,1.5-1.5
			C393,75.5,393.6,76.1,393.6,77z"/>
		<path class="st1" d="M420.1,83.6v14c0,0.9-0.7,1.5-1.5,1.5c-0.9,0-1.5-0.6-1.5-1.5v-14c0-3.3-1.9-5.2-5.3-5.2
			c-1.9,0-3.6,0.3-5.3,0.8v18.4c0,0.9-0.6,1.5-1.5,1.5c-0.9,0-1.5-0.6-1.5-1.5V78.5c0-0.9,0.5-1.6,1.5-1.9c2.2-0.7,4.4-1.1,6.9-1.1
			C417.2,75.5,420.1,78.5,420.1,83.6z"/>
		<path class="st1" d="M443,76.9c0.5,0.3,0.9,0.8,0.9,1.3c0,0.8-0.6,1.4-1.4,1.4c-0.6,0-1-0.2-1.6-0.5c-1.1-0.5-2.5-0.8-4-0.8
			c-3.2,0-5.2,2-5.2,5.5v6.9c0,3.5,2,5.5,5.2,5.5c1.6,0,3-0.4,4-0.8c0.6-0.3,1-0.5,1.5-0.5c0.8,0,1.5,0.6,1.5,1.5
			c0,0.5-0.3,1-0.9,1.3c-1.7,1-3.9,1.4-6.1,1.4c-5.1,0-8.4-3.2-8.4-8.4v-6.9c0-5.2,3.4-8.4,8.4-8.4C439.1,75.5,441.3,76,443,76.9z"
			/>
		<path class="st1" d="M453.9,67.9v9.3c1.8-1,4-1.7,5.7-1.7c5.1,0,8,3,8,8.3v13.8c0,0.9-0.7,1.5-1.5,1.5c-0.9,0-1.5-0.6-1.5-1.5v-14
			c0-3.5-2-5.2-5.2-5.2c-1.8,0-3.7,0.7-5.4,2v17.3c0,0.9-0.6,1.5-1.5,1.5c-0.9,0-1.5-0.6-1.5-1.5V67.9c0-0.9,0.7-1.5,1.5-1.5
			C453.3,66.3,453.9,66.9,453.9,67.9z"/>
		<path class="st1" d="M506.5,67.9c0.6,0.3,0.9,0.8,0.9,1.5c0,0.8-0.6,1.5-1.4,1.5c-0.5,0-0.9-0.2-1.4-0.4c-2.1-0.8-3.7-1.1-6-1.1
			c-3.4,0-6,2.1-6,4.9c0,2.7,1.5,4,4.1,5.4l5.3,2.6c3,1.5,6.1,3.5,6.1,8.6c0,5.4-4.4,8.5-9.6,8.5c-3,0-5.6-0.6-8.1-1.7
			c-0.7-0.3-1-0.8-1-1.5c0-0.9,0.6-1.5,1.5-1.5c0.4,0,0.7,0.1,1.4,0.4c2,0.9,3.8,1.3,6.3,1.3c3.5,0,6.5-1.9,6.5-5.4
			c0-3.2-1.8-4.6-4.7-6.1l-5.3-2.6c-3.2-1.6-5.5-3.8-5.5-7.8c0-4.6,3.9-7.9,9.3-7.9C501.9,66.3,504.3,66.8,506.5,67.9z"/>
		<path class="st1" d="M519.8,69.3c0,1-0.9,2-2,2c-1.1,0-2-0.9-2-2c0-1.1,0.9-2,2-2C518.9,67.3,519.8,68.2,519.8,69.3z M519.4,77
			v20.6c0,0.9-0.7,1.5-1.5,1.5c-0.9,0-1.5-0.6-1.5-1.5V77c0-0.9,0.6-1.5,1.5-1.5C518.7,75.5,519.4,76.1,519.4,77z"/>
		<path class="st1" d="M532.1,67.9v8.1h5.3c1,0,1.5,0.6,1.5,1.5c0,0.8-0.6,1.5-1.5,1.5h-5.3v13.8c0,2.4,1.1,3.5,3.1,3.5
			c1.2,0,1.6-0.2,2.2-0.2c0.8,0,1.5,0.5,1.5,1.5c0,0.8-0.5,1.3-1.3,1.5c-1,0.2-1.6,0.2-2.5,0.2c-3.5,0-6.1-2.2-6.1-6.5V67.9
			c0-0.9,0.7-1.5,1.5-1.5C531.5,66.3,532.1,66.9,532.1,67.9z"/>
		<path class="st1" d="M561.6,83.8v2.6c0,1-0.7,2-2,2h-11.7v2.5c0,3,1.7,5.4,5.3,5.4c2,0,3.5-0.5,5.1-1c0.5-0.2,0.8-0.3,1.1-0.3
			c0.8,0,1.5,0.6,1.5,1.4c0,0.6-0.3,1-0.9,1.3c-2,0.9-4.8,1.5-6.7,1.5c-5.3,0-8.4-3.5-8.4-8.4v-6.9c0-5.1,3.3-8.4,8.4-8.4
			C558.4,75.5,561.6,78.8,561.6,83.8z M547.9,83.7v1.8h10.6v-1.7c0-3.4-1.8-5.5-5.3-5.5C549.7,78.3,547.9,80.4,547.9,83.7z"/>
	</g>
</g>
<path class="st1" d="M116.4,64.3H74.7v12.4H55.8v28.6h41.7V93h18.9V64.3z M93.6,101.4H59.7V80.6h15V93h18.9V101.4z M93.6,89.1h-15
	v-8.5h15V89.1z M112.5,89.1h-15V76.7H78.6v-8.5h33.9V89.1z"/>
</svg>
