<?xml version="1.0" standalone="no"?>
<!DOCTYPE svg PUBLIC "-//W3C//DTD SVG 20010904//EN"
 "http://www.w3.org/TR/2001/REC-SVG-20010904/DTD/svg10.dtd">
<svg version="1.0" xmlns="http://www.w3.org/2000/svg"
 width="260.000000pt" height="260.000000pt" viewBox="0 0 260.000000 260.000000"
 preserveAspectRatio="xMidYMid meet">
<metadata>
Created by potrace 1.11, written by Peter Selinger 2001-2013
</metadata>
<g transform="translate(0.000000,260.000000) scale(0.100000,-0.100000)"
fill="#000000" stroke="none">
<path d="M1762 2245 c-6 -22 -16 -62 -22 -90 -6 -27 -14 -55 -18 -61 -4 -7
-49 -15 -102 -19 -52 -3 -106 -8 -120 -10 -14 -2 -65 -6 -115 -10 -188 -12
-258 -24 -154 -26 30 0 62 -2 72 -4 10 -2 55 -6 100 -10 45 -4 98 -8 117 -10
155 -13 196 -18 201 -24 3 -3 12 -35 19 -71 7 -36 19 -80 25 -99 l12 -35 13
65 c17 77 15 66 24 112 7 31 12 37 35 38 14 1 37 2 51 4 14 1 63 5 110 9 47 4
105 9 130 12 63 7 130 13 164 13 16 1 27 3 24 6 -5 5 -43 10 -178 21 -47 3
-98 8 -115 9 -16 2 -68 6 -115 10 -95 7 -104 13 -114 78 -4 23 -13 62 -20 87
l-14 45 -10 -40z"/>
<path d="M362 1685 c-81 -25 -115 -56 -144 -134 -15 -39 -17 -88 -18 -338 l0
-293 260 0 260 0 0 33 c6 621 1 581 75 616 41 19 64 20 507 20 440 0 467 -1
504 -19 51 -25 65 -50 69 -120 5 -66 -14 -112 -58 -144 -28 -20 -41 -21 -445
-23 -229 -1 -424 -2 -433 -2 -13 -1 -16 -12 -16 -56 l1 -56 651 3 c716 3 690
1 758 66 48 45 61 86 61 197 0 117 -21 174 -79 214 -76 51 -74 51 -1025 50
-704 0 -894 -3 -928 -14z"/>
</g>
</svg>
