<?xml version="1.0" encoding="utf-8"?>
<!-- Generator: Adobe Illustrator 19.2.1, SVG Export Plug-In . SVG Version: 6.00 Build 0)  -->
<svg version="1.1" id="btn_x5F_share_x5F_facebook" xmlns="http://www.w3.org/2000/svg" xmlns:xlink="http://www.w3.org/1999/xlink"
	 x="0px" y="0px" viewBox="0 0 216 58" style="enable-background:new 0 0 216 58;" xml:space="preserve">
<style type="text/css">
	.st0{fill:#375DAA;}
	.st1{fill:#FFFFFF;}
	.st2{fill:#FFFFFF;stroke:#FFFFFF;stroke-width:0.5;stroke-linecap:round;stroke-linejoin:round;stroke-miterlimit:10;}
</style>
<g>
	<path class="st0" d="M216,54c0,2.2-1.8,4-4,4H4c-2.2,0-4-1.8-4-4V4c0-2.2,1.8-4,4-4h208c2.2,0,4,1.8,4,4V54z"/>
</g>
<path class="st1" d="M28.5,29h-2.8v10.1h-4.2V29h-2v-3.6h2v-2.3c0-1.7,0.8-4.3,4.3-4.3l3.1,0v3.5h-2.3c-0.4,0-0.9,0.2-0.9,1v2.1h3.2
	L28.5,29z"/>
<rect x="44.3" y="13.7" class="st1" width="0.9" height="31.1"/>
<g>
	<g>
		<path class="st1" d="M71.8,25.9c0.2,0.1,0.3,0.2,0.3,0.4c0,0.2-0.2,0.4-0.4,0.4c-0.1,0-0.2-0.1-0.4-0.1c-0.6-0.2-1.1-0.3-1.7-0.3
			c-1,0-1.7,0.6-1.7,1.4c0,0.8,0.4,1.2,1.2,1.6l1.5,0.8c0.9,0.4,1.8,1,1.8,2.5c0,1.6-1.3,2.5-2.8,2.5c-0.9,0-1.6-0.2-2.3-0.5
			c-0.2-0.1-0.3-0.2-0.3-0.4c0-0.2,0.2-0.4,0.4-0.4c0.1,0,0.2,0,0.4,0.1c0.6,0.3,1.1,0.4,1.8,0.4c1,0,1.9-0.6,1.9-1.6
			c0-0.9-0.5-1.3-1.4-1.8L68.5,30c-0.9-0.5-1.6-1.1-1.6-2.3c0-1.3,1.1-2.3,2.7-2.3C70.5,25.5,71.2,25.6,71.8,25.9z"/>
		<path class="st1" d="M75.7,25.9v2.7c0.5-0.3,1.2-0.5,1.7-0.5c1.5,0,2.3,0.9,2.3,2.4v4c0,0.3-0.2,0.4-0.4,0.4
			c-0.3,0-0.4-0.2-0.4-0.4v-4.1c0-1-0.6-1.5-1.5-1.5c-0.5,0-1.1,0.2-1.6,0.6v5c0,0.3-0.2,0.4-0.4,0.4c-0.3,0-0.4-0.2-0.4-0.4v-8.6
			c0-0.3,0.2-0.4,0.4-0.4C75.5,25.5,75.7,25.7,75.7,25.9z"/>
		<path class="st1" d="M86.9,30.1v4.1c0,0.2-0.1,0.4-0.4,0.5C86,34.9,85.3,35,84.6,35c-1.6,0-2.6-0.6-2.6-2c0-1.5,1.2-2,2.6-2H86
			v-0.9c0-0.7-0.5-1.1-1.4-1.1c-0.5,0-0.9,0.1-1.3,0.3c-0.2,0.1-0.3,0.1-0.4,0.1c-0.2,0-0.4-0.2-0.4-0.4c0-0.2,0.1-0.3,0.2-0.4
			c0.5-0.3,1.1-0.5,1.9-0.5C85.9,28.1,86.9,28.8,86.9,30.1z M84.6,31.8c-1,0-1.7,0.3-1.7,1.2c0,0.9,0.7,1.2,1.7,1.2
			c0.5,0,0.9-0.1,1.4-0.2v-2.2H84.6z"/>
		<path class="st1" d="M92.5,28.2c0.2,0.1,0.4,0.2,0.4,0.4c0,0.2-0.2,0.4-0.4,0.4c-0.2,0-0.4-0.1-0.8-0.1c-0.5,0-0.9,0.4-0.9,1v4.6
			c0,0.3-0.2,0.4-0.4,0.4c-0.3,0-0.4-0.2-0.4-0.4v-4.6c0-1.1,0.7-1.8,1.8-1.8C91.9,28.1,92.1,28.2,92.5,28.2z"/>
		<path class="st1" d="M99.5,30.6v0.8c0,0.3-0.2,0.6-0.6,0.6h-3.4v0.7c0,0.9,0.5,1.6,1.5,1.6c0.6,0,1-0.1,1.5-0.3
			c0.1-0.1,0.2-0.1,0.3-0.1c0.2,0,0.4,0.2,0.4,0.4c0,0.2-0.1,0.3-0.2,0.4c-0.6,0.3-1.4,0.4-2,0.4c-1.5,0-2.4-1-2.4-2.4v-2
			c0-1.5,1-2.4,2.4-2.4C98.5,28.1,99.5,29.1,99.5,30.6z M95.5,30.5V31h3.1v-0.5c0-1-0.5-1.6-1.5-1.6C96,29,95.5,29.6,95.5,30.5z"/>
		<path class="st1" d="M111.2,30.7v1.8c0,1.6-1,2.5-2.6,2.5c-1.6,0-2.6-0.9-2.6-2.5v-1.8c0-1.6,1-2.5,2.6-2.5
			C110.2,28.1,111.2,29.1,111.2,30.7z M107,30.6v1.9c0,1,0.7,1.6,1.7,1.6c1,0,1.7-0.6,1.7-1.6v-1.9c0-1.1-0.7-1.7-1.7-1.7
			C107.7,29,107,29.6,107,30.6z"/>
		<path class="st1" d="M118.8,30.5v4.1c0,0.3-0.2,0.4-0.4,0.4c-0.3,0-0.4-0.2-0.4-0.4v-4.1c0-1-0.5-1.5-1.5-1.5
			c-0.5,0-1,0.1-1.5,0.2v5.3c0,0.3-0.2,0.4-0.4,0.4c-0.3,0-0.4-0.2-0.4-0.4V29c0-0.3,0.1-0.5,0.4-0.6c0.6-0.2,1.3-0.3,2-0.3
			C117.9,28.1,118.8,29,118.8,30.5z"/>
		<path class="st2" d="M130.9,24.8c0.3,0,0.5,0.2,0.5,0.5c0,0.3-0.2,0.5-0.5,0.5H127v3.4h3.7c0.3,0,0.5,0.2,0.5,0.5
			s-0.2,0.5-0.5,0.5H127v4.4c0,0.3-0.2,0.5-0.5,0.5c-0.3,0-0.5-0.2-0.5-0.5v-9.1c0-0.3,0.3-0.6,0.6-0.6H130.9z"/>
		<path class="st2" d="M139.1,29.7v4.4c0,0.3-0.1,0.5-0.4,0.6c-0.6,0.2-1.3,0.3-2.1,0.3c-1.7,0-2.8-0.6-2.8-2.2s1.3-2.2,2.8-2.2h1.5
			v-0.9c0-0.7-0.6-1.2-1.5-1.2c-0.5,0-1,0.1-1.4,0.3c-0.2,0.1-0.3,0.2-0.5,0.2c-0.2,0-0.4-0.2-0.4-0.4c0-0.2,0.1-0.3,0.2-0.4
			c0.5-0.3,1.2-0.5,2.1-0.5C137.9,27.6,139.1,28.3,139.1,29.7z M136.5,31.5c-1,0-1.8,0.3-1.8,1.3c0,1,0.8,1.3,1.8,1.3
			c0.5,0,1-0.1,1.5-0.2v-2.3H136.5z"/>
		<path class="st2" d="M147,28c0.2,0.1,0.3,0.2,0.3,0.4c0,0.3-0.2,0.4-0.4,0.4c-0.2,0-0.3-0.1-0.5-0.2c-0.3-0.1-0.8-0.3-1.3-0.3
			c-1,0-1.6,0.6-1.6,1.7v2.2c0,1.1,0.6,1.7,1.6,1.7c0.5,0,0.9-0.1,1.3-0.3c0.2-0.1,0.3-0.2,0.5-0.2c0.3,0,0.5,0.2,0.5,0.5
			c0,0.2-0.1,0.3-0.3,0.4c-0.5,0.3-1.2,0.4-1.9,0.4c-1.6,0-2.6-1-2.6-2.6v-2.2c0-1.6,1.1-2.6,2.6-2.6C145.7,27.6,146.4,27.7,147,28z
			"/>
		<path class="st2" d="M155.1,30.2V31c0,0.3-0.2,0.6-0.6,0.6h-3.7v0.8c0,0.9,0.5,1.7,1.7,1.7c0.6,0,1.1-0.1,1.6-0.3
			c0.2-0.1,0.2-0.1,0.3-0.1c0.3,0,0.5,0.2,0.5,0.4c0,0.2-0.1,0.3-0.3,0.4c-0.6,0.3-1.5,0.5-2.1,0.5c-1.7,0-2.6-1.1-2.6-2.6v-2.2
			c0-1.6,1-2.6,2.6-2.6C154.1,27.6,155.1,28.6,155.1,30.2z M150.8,30.2v0.6h3.3v-0.5c0-1.1-0.6-1.7-1.7-1.7S150.8,29.1,150.8,30.2z"
			/>
		<path class="st2" d="M159.5,25.2v2.9c0.6-0.4,1.2-0.6,1.8-0.6c1.5,0,2.6,0.9,2.6,2.6v2.2c0,1.7-1.1,2.6-2.6,2.6
			c-0.8,0-1.5-0.1-2.2-0.4c-0.3-0.1-0.4-0.3-0.4-0.6v-8.9c0-0.3,0.2-0.5,0.5-0.5C159.3,24.7,159.5,24.9,159.5,25.2z M159.5,29.1v4.8
			c0.5,0.2,1.1,0.2,1.7,0.2c1.1,0,1.7-0.6,1.7-1.6v-2.3c0-1-0.6-1.6-1.7-1.6C160.6,28.5,160,28.7,159.5,29.1z"/>
		<path class="st2" d="M172.7,30.3v1.9c0,1.7-1,2.7-2.8,2.7c-1.7,0-2.8-1-2.8-2.7v-1.9c0-1.7,1.1-2.8,2.8-2.8
			C171.6,27.6,172.7,28.6,172.7,30.3z M168.1,30.3v2.1c0,1.1,0.7,1.8,1.8,1.8c1.1,0,1.8-0.6,1.8-1.8v-2.1c0-1.1-0.7-1.8-1.8-1.8
			C168.8,28.5,168.1,29.1,168.1,30.3z"/>
		<path class="st2" d="M181.4,30.3v1.9c0,1.7-1,2.7-2.8,2.7c-1.7,0-2.8-1-2.8-2.7v-1.9c0-1.7,1.1-2.8,2.8-2.8
			C180.3,27.6,181.4,28.6,181.4,30.3z M176.8,30.3v2.1c0,1.1,0.7,1.8,1.8,1.8c1.1,0,1.8-0.6,1.8-1.8v-2.1c0-1.1-0.7-1.8-1.8-1.8
			C177.5,28.5,176.8,29.1,176.8,30.3z"/>
		<path class="st2" d="M185.8,25.2v5.1l3-2.6c0.1-0.1,0.2-0.1,0.4-0.1c0.3,0,0.5,0.2,0.5,0.5c0,0.1,0,0.3-0.2,0.4l-2.9,2.4l3.1,3.3
			c0.1,0.1,0.1,0.2,0.1,0.3c0,0.2-0.2,0.5-0.5,0.5c-0.2,0-0.3,0-0.4-0.2l-3.1-3.4v3.1c0,0.3-0.2,0.5-0.5,0.5s-0.5-0.2-0.5-0.5v-9.3
			c0-0.3,0.2-0.5,0.5-0.5C185.6,24.7,185.8,24.9,185.8,25.2z"/>
	</g>
</g>
</svg>
