<?xml version="1.0" encoding="utf-8"?>
<!-- Generator: Adobe Illustrator 19.2.1, SVG Export Plug-In . SVG Version: 6.00 Build 0)  -->
<svg version="1.1" id="btn_x5F_share_x5F_twitter" xmlns="http://www.w3.org/2000/svg" xmlns:xlink="http://www.w3.org/1999/xlink"
	 x="0px" y="0px" viewBox="0 0 216 58" style="enable-background:new 0 0 216 58;" xml:space="preserve">
<style type="text/css">
	.st0{fill:#40A2E0;}
	.st1{fill:#FFFFFF;}
	.st2{fill:#FFFFFF;stroke:#FFFFFF;stroke-width:0.5;stroke-linecap:round;stroke-linejoin:round;stroke-miterlimit:10;}
</style>
<g>
	<path class="st0" d="M216,54c0,2.2-1.8,4-4,4H4c-2.2,0-4-1.8-4-4V4c0-2.2,1.8-4,4-4h208c2.2,0,4,1.8,4,4V54z"/>
</g>
<path class="st1" d="M32.3,23.3c-0.7,0.3-1.5,0.5-2.3,0.6c0.8-0.5,1.5-1.3,1.8-2.3c-0.8,0.5-1.7,0.8-2.6,1c-0.7-0.8-1.8-1.3-3-1.3
	c-2.3,0-4.1,1.8-4.1,4.1c0,0.3,0,0.6,0.1,0.9c-3.4-0.2-6.4-1.8-8.4-4.3c-0.4,0.6-0.6,1.3-0.6,2c0,1.4,0.7,2.7,1.8,3.4
	c-0.7,0-1.3-0.2-1.8-0.5c0,0,0,0,0,0.1c0,2,1.4,3.6,3.3,4c-0.3,0.1-0.7,0.1-1.1,0.1c-0.3,0-0.5,0-0.8-0.1c0.5,1.6,2,2.8,3.8,2.8
	c-1.4,1.1-3.2,1.7-5.1,1.7c-0.3,0-0.7,0-1-0.1c1.8,1.2,3.9,1.8,6.2,1.8c7.5,0,11.6-6.2,11.6-11.6c0-0.2,0-0.4,0-0.5
	C31.1,24.9,31.8,24.1,32.3,23.3z"/>
<rect x="44.3" y="13.7" class="st1" width="0.9" height="31.1"/>
<g>
	<g>
		<path class="st1" d="M81.2,25.9c0.2,0.1,0.3,0.2,0.3,0.4c0,0.2-0.2,0.4-0.4,0.4c-0.1,0-0.2-0.1-0.4-0.1c-0.6-0.2-1.1-0.3-1.7-0.3
			c-1,0-1.7,0.6-1.7,1.4c0,0.8,0.4,1.2,1.2,1.6l1.5,0.8c0.9,0.4,1.8,1,1.8,2.5c0,1.6-1.3,2.5-2.8,2.5c-0.9,0-1.6-0.2-2.3-0.5
			c-0.2-0.1-0.3-0.2-0.3-0.4c0-0.2,0.2-0.4,0.4-0.4c0.1,0,0.2,0,0.4,0.1c0.6,0.3,1.1,0.4,1.8,0.4c1,0,1.9-0.6,1.9-1.6
			c0-0.9-0.5-1.3-1.4-1.8L77.9,30c-0.9-0.5-1.6-1.1-1.6-2.3c0-1.3,1.1-2.3,2.7-2.3C79.9,25.5,80.6,25.6,81.2,25.9z"/>
		<path class="st1" d="M85.1,25.9v2.7c0.5-0.3,1.2-0.5,1.7-0.5c1.5,0,2.3,0.9,2.3,2.4v4c0,0.3-0.2,0.4-0.4,0.4
			c-0.3,0-0.4-0.2-0.4-0.4v-4.1c0-1-0.6-1.5-1.5-1.5c-0.5,0-1.1,0.2-1.6,0.6v5c0,0.3-0.2,0.4-0.4,0.4c-0.3,0-0.4-0.2-0.4-0.4v-8.6
			c0-0.3,0.2-0.4,0.4-0.4C84.9,25.5,85.1,25.7,85.1,25.9z"/>
		<path class="st1" d="M96.3,30.1v4.1c0,0.2-0.1,0.4-0.4,0.5c-0.5,0.2-1.2,0.3-1.9,0.3c-1.6,0-2.6-0.6-2.6-2c0-1.5,1.2-2,2.6-2h1.4
			v-0.9c0-0.7-0.5-1.1-1.4-1.1c-0.5,0-0.9,0.1-1.3,0.3c-0.2,0.1-0.3,0.1-0.4,0.1c-0.2,0-0.4-0.2-0.4-0.4c0-0.2,0.1-0.3,0.2-0.4
			c0.5-0.3,1.1-0.5,1.9-0.5C95.3,28.1,96.3,28.8,96.3,30.1z M94,31.8c-1,0-1.7,0.3-1.7,1.2c0,0.9,0.7,1.2,1.7,1.2
			c0.5,0,0.9-0.1,1.4-0.2v-2.2H94z"/>
		<path class="st1" d="M101.9,28.2c0.2,0.1,0.4,0.2,0.4,0.4c0,0.2-0.2,0.4-0.4,0.4c-0.2,0-0.4-0.1-0.8-0.1c-0.5,0-0.9,0.4-0.9,1v4.6
			c0,0.3-0.2,0.4-0.4,0.4c-0.3,0-0.4-0.2-0.4-0.4v-4.6c0-1.1,0.7-1.8,1.8-1.8C101.3,28.1,101.6,28.2,101.9,28.2z"/>
		<path class="st1" d="M108.9,30.6v0.8c0,0.3-0.2,0.6-0.6,0.6h-3.4v0.7c0,0.9,0.5,1.6,1.5,1.6c0.6,0,1-0.1,1.5-0.3
			c0.1-0.1,0.2-0.1,0.3-0.1c0.2,0,0.4,0.2,0.4,0.4c0,0.2-0.1,0.3-0.2,0.4c-0.6,0.3-1.4,0.4-2,0.4c-1.5,0-2.4-1-2.4-2.4v-2
			c0-1.5,1-2.4,2.4-2.4C107.9,28.1,108.9,29.1,108.9,30.6z M104.9,30.5V31h3.1v-0.5c0-1-0.5-1.6-1.5-1.6
			C105.4,29,104.9,29.6,104.9,30.5z"/>
		<path class="st1" d="M120.6,30.7v1.8c0,1.6-1,2.5-2.6,2.5c-1.6,0-2.6-0.9-2.6-2.5v-1.8c0-1.6,1-2.5,2.6-2.5
			C119.6,28.1,120.6,29.1,120.6,30.7z M116.4,30.6v1.9c0,1,0.7,1.6,1.7,1.6c1,0,1.7-0.6,1.7-1.6v-1.9c0-1.1-0.7-1.7-1.7-1.7
			C117.1,29,116.4,29.6,116.4,30.6z"/>
		<path class="st1" d="M128.2,30.5v4.1c0,0.3-0.2,0.4-0.4,0.4c-0.3,0-0.4-0.2-0.4-0.4v-4.1c0-1-0.5-1.5-1.5-1.5
			c-0.5,0-1,0.1-1.5,0.2v5.3c0,0.3-0.2,0.4-0.4,0.4c-0.3,0-0.4-0.2-0.4-0.4V29c0-0.3,0.1-0.5,0.4-0.6c0.6-0.2,1.3-0.3,2-0.3
			C127.3,28.1,128.2,29,128.2,30.5z"/>
		<path class="st2" d="M140.7,24.8c0.3,0,0.5,0.2,0.5,0.5c0,0.3-0.2,0.5-0.5,0.5h-2.4v8.7c0,0.3-0.2,0.5-0.5,0.5s-0.5-0.2-0.5-0.5
			v-8.7h-2.4c-0.3,0-0.5-0.2-0.5-0.5c0-0.3,0.2-0.5,0.5-0.5H140.7z"/>
		<path class="st2" d="M151.9,28c0,0.1,0,0.2,0,0.2l-1.8,6.2c-0.1,0.3-0.3,0.5-0.6,0.5c-0.3,0-0.5-0.1-0.6-0.5l-1.4-5.1l-1.4,5.1
			c-0.1,0.3-0.3,0.5-0.6,0.5c-0.3,0-0.5-0.2-0.6-0.5l-1.8-6.2c0-0.1,0-0.2,0-0.2c0-0.2,0.2-0.5,0.5-0.5c0.2,0,0.4,0.1,0.5,0.3
			l1.5,5.6l1.5-5.5c0.1-0.3,0.3-0.4,0.6-0.4c0.3,0,0.5,0.2,0.6,0.4l1.5,5.5l1.5-5.6c0.1-0.2,0.3-0.3,0.5-0.3
			C151.7,27.6,151.9,27.8,151.9,28z"/>
		<path class="st2" d="M156.1,25.6c0,0.3-0.3,0.6-0.6,0.6c-0.3,0-0.6-0.3-0.6-0.6c0-0.3,0.3-0.6,0.6-0.6
			C155.8,25,156.1,25.3,156.1,25.6z M156,28.1v6.5c0,0.3-0.2,0.5-0.5,0.5c-0.3,0-0.5-0.2-0.5-0.5v-6.5c0-0.3,0.2-0.5,0.5-0.5
			C155.7,27.6,156,27.8,156,28.1z"/>
		<path class="st2" d="M160.7,25.2v2.5h1.7c0.3,0,0.5,0.2,0.5,0.5c0,0.3-0.2,0.5-0.5,0.5h-1.7V33c0,0.7,0.4,1.1,1,1.1
			c0.4,0,0.5-0.1,0.7-0.1c0.3,0,0.5,0.2,0.5,0.5c0,0.2-0.2,0.4-0.4,0.5c-0.3,0.1-0.5,0.1-0.8,0.1c-1.1,0-1.9-0.7-1.9-2v-7.8
			c0-0.3,0.2-0.5,0.5-0.5C160.5,24.7,160.7,24.9,160.7,25.2z"/>
		<path class="st2" d="M166.7,25.2v2.5h1.7c0.3,0,0.5,0.2,0.5,0.5c0,0.3-0.2,0.5-0.5,0.5h-1.7V33c0,0.7,0.4,1.1,1,1.1
			c0.4,0,0.5-0.1,0.7-0.1c0.3,0,0.5,0.2,0.5,0.5c0,0.2-0.2,0.4-0.4,0.5c-0.3,0.1-0.5,0.1-0.8,0.1c-1.1,0-1.9-0.7-1.9-2v-7.8
			c0-0.3,0.2-0.5,0.5-0.5C166.5,24.7,166.7,24.9,166.7,25.2z"/>
		<path class="st2" d="M176.7,30.2V31c0,0.3-0.2,0.6-0.6,0.6h-3.7v0.8c0,0.9,0.5,1.7,1.7,1.7c0.6,0,1.1-0.1,1.6-0.3
			c0.2-0.1,0.2-0.1,0.3-0.1c0.3,0,0.5,0.2,0.5,0.4c0,0.2-0.1,0.3-0.3,0.4c-0.6,0.3-1.5,0.5-2.1,0.5c-1.7,0-2.6-1.1-2.6-2.6v-2.2
			c0-1.6,1-2.6,2.6-2.6C175.7,27.6,176.7,28.6,176.7,30.2z M172.4,30.2v0.6h3.3v-0.5c0-1.1-0.6-1.7-1.7-1.7S172.4,29.1,172.4,30.2z"
			/>
		<path class="st2" d="M183.1,27.7c0.2,0.1,0.4,0.2,0.4,0.5c0,0.3-0.2,0.4-0.5,0.4c-0.2,0-0.5-0.1-0.9-0.1c-0.6,0-1,0.4-1,1.1v5
			c0,0.3-0.2,0.5-0.5,0.5c-0.3,0-0.5-0.2-0.5-0.5v-5c0-1.2,0.8-2,1.9-2C182.4,27.6,182.7,27.6,183.1,27.7z"/>
	</g>
</g>
</svg>
