<?xml version="1.0" encoding="utf-8"?>
<!-- Generator: Adobe Illustrator 19.2.1, SVG Export Plug-In . SVG Version: 6.00 Build 0)  -->
<svg version="1.1" id="btn_x5F_hatena" xmlns="http://www.w3.org/2000/svg" xmlns:xlink="http://www.w3.org/1999/xlink" x="0px"
	 y="0px" viewBox="0 0 216 58" style="enable-background:new 0 0 216 58;" xml:space="preserve">
<style type="text/css">
	.st0{fill:#FFFFFF;}
	.st1{fill:#00A4D4;}
</style>
<g>
	<path class="st0" d="M216,54c0,2.2-1.8,4-4,4H4c-2.2,0-4-1.8-4-4V4c0-2.2,1.8-4,4-4h208c2.2,0,4,1.8,4,4V54z"/>
</g>
<rect x="44.3" y="13.7" class="st1" width="0.9" height="31.1"/>
<g>
	<g>
		<path class="st1" d="M70.5,25c0.1,0.1,0.2,0.1,0.2,0.2c0,0.1,0,0.2-0.1,0.3c-0.1,0.1-0.1,0.3-0.2,0.7c-0.4,1.8-0.6,3.5-0.6,4.3
			c0,0.5,0,1,0,1.5c0.2-0.5,0.5-1.1,0.7-1.7c0.2,0.4,0.3,0.5,0.4,0.8c0,0.1,0.1,0.1,0.1,0.2s0,0.1-0.1,0.2c-0.4,0.9-0.6,1.5-0.6,1.8
			c0,0.3,0,0.5,0,0.6c0,0.1,0,0.1-0.1,0.2c-0.2,0.1-0.6,0.2-0.9,0.2c-0.1,0-0.2,0-0.2-0.1c-0.3-0.8-0.5-2.3-0.5-3.6
			c0-1.1,0.1-2.1,0.5-4.5c0.1-0.4,0.1-0.9,0.1-1.4C69.6,24.7,70.3,24.9,70.5,25z M74.6,28.2c-0.8,0-1.6,0-2.5,0
			c-0.2,0-0.2,0-0.2-0.2c0-0.3-0.1-0.7-0.1-1.1c0.9,0.1,1.8,0.1,2.7,0c0-0.4,0-0.8,0-1.2c0-0.4,0-0.7-0.2-1.2c0.7,0.1,1,0.1,1.4,0.2
			c0.1,0,0.2,0.1,0.2,0.2c0,0.1,0,0.1-0.1,0.2c0,0.1-0.1,0.3-0.1,0.4c0,0.4,0,0.7,0,1.3c0.6,0,1.2-0.1,1.7-0.2c0.1,0,0.2,0,0.2,0.1
			c0,0.2,0.1,0.6,0.1,0.8c0,0.1,0,0.2-0.1,0.2c-0.4,0.1-1.2,0.2-1.8,0.2c0,1.3,0,2.2,0.1,3.2c0.7,0.3,1.3,0.6,2,1.1
			c0.1,0.1,0.1,0.1,0.1,0.2c-0.2,0.3-0.3,0.6-0.5,0.9c0,0-0.1,0.1-0.1,0.1c0,0-0.1,0-0.1-0.1c-0.4-0.3-0.8-0.6-1.3-1
			c-0.1,1-0.8,1.5-2.2,1.5c-1.4,0-2.1-0.6-2.1-1.7c0-1,0.9-1.7,2.1-1.7c0.3,0,0.7,0,1,0.1C74.6,30,74.6,29.1,74.6,28.2z M73.7,31.9
			c-0.6,0-0.9,0.2-0.9,0.6c0,0.4,0.3,0.6,1,0.6c0.6,0,1-0.3,1-0.8c0-0.1,0-0.1,0-0.2C74.3,31.9,74,31.9,73.7,31.9z"/>
		<path class="st1" d="M88,26.7c-1.5,0.3-2.7,0.5-4,0.8c-0.5,0.1-0.6,0.1-0.8,0.2c-0.1,0-0.2,0.1-0.3,0.1c-0.1,0-0.2-0.1-0.2-0.2
			c-0.2-0.3-0.3-0.7-0.4-1.3c0.6,0,1-0.1,1.9-0.2c1.5-0.2,4.1-0.6,7.2-1c0.2,0,0.2,0,0.2,0.1c0.1,0.3,0.1,0.7,0.1,1
			c0,0.1-0.1,0.2-0.2,0.2c-0.6,0-0.9,0.1-1.5,0.3c-2,0.7-3,2.1-3,3.5c0,1.5,1.1,2.4,3.2,2.5c0.2,0,0.3,0,0.3,0.2c0,0.3,0,0.7-0.1,1
			c0,0.2-0.1,0.2-0.2,0.2c-2.1,0-4.4-1.2-4.4-3.7C85.7,28.8,86.6,27.6,88,26.7L88,26.7z"/>
		<path class="st1" d="M101.5,26c0.1,0,0.2,0,0.2,0.1c0.1,0.3,0.1,0.7,0.1,1c0,0.1,0,0.1-0.1,0.1c-0.6,0.1-1.2,0.2-2,0.3
			c-0.8,2-1.5,3.7-2.3,5.1c0,0.1-0.1,0.1-0.1,0.1c0,0-0.1,0-0.1-0.1c-0.3-0.2-0.6-0.4-0.8-0.6c-0.1,0-0.1-0.1-0.1-0.1
			c0,0,0-0.1,0.1-0.1c0.9-1.5,1.5-2.7,2.1-4.2c-0.5,0-0.8,0-1.2,0c-0.3,0-0.4,0-0.7,0c-0.1,0-0.1,0-0.2-0.2c-0.1-0.2-0.1-0.6-0.1-1
			c0.5,0,0.8,0,1.1,0c0.5,0,0.8,0,1.4-0.1c0.1-0.5,0.2-0.9,0.3-1.3c0.1-0.4,0.1-0.6,0.1-1c0.5,0.1,1,0.1,1.4,0.2
			c0.1,0,0.2,0.1,0.2,0.2c0,0.1,0,0.2-0.1,0.2c-0.1,0.1-0.1,0.2-0.2,0.4c-0.1,0.3-0.2,0.7-0.3,1C100.5,26.2,101,26.1,101.5,26z
			 M101.8,29.2c0-0.3,0-0.5-0.1-0.8c0.6,0.1,0.9,0.1,1.3,0.2c0.1,0,0.2,0.1,0.2,0.2c0,0,0,0.1-0.1,0.2c0,0.1-0.1,0.3,0,0.5
			c0,0.7,0,1.2,0.1,2c0.9,0.3,1.4,0.6,2.1,1.1c0.1,0.1,0.1,0.1,0.1,0.2c-0.2,0.4-0.3,0.7-0.5,1c0,0.1-0.1,0.1-0.1,0.1
			c0,0-0.1,0-0.1-0.1c-0.5-0.5-1-0.7-1.5-1c0,1.2-0.9,1.7-2.2,1.7c-1.3,0-2.2-0.7-2.2-1.7c0-1,0.9-1.7,2.2-1.7c0.2,0,0.6,0,0.9,0.1
			C101.8,30.4,101.8,29.7,101.8,29.2z M101,32.2c-0.6,0-1.1,0.2-1.1,0.7c0,0.4,0.3,0.6,1,0.6c0.6,0,1-0.3,1-0.8c0-0.1,0-0.2,0-0.2
			C101.6,32.2,101.3,32.2,101,32.2z M103.2,26.4c0.1-0.1,0.1-0.1,0.2-0.1c0.7,0.2,1.6,0.7,2.3,1.1c0.1,0,0.1,0.1,0.1,0.1
			c0,0,0,0.1,0,0.1c-0.1,0.3-0.3,0.6-0.5,0.9c0,0.1-0.1,0.1-0.1,0.1c0,0-0.1,0-0.1,0c-0.7-0.5-1.6-1-2.5-1.3
			C102.8,27,103,26.6,103.2,26.4z"/>
		<path class="st1" d="M112.6,27.2c-0.8,0-1.5,0-2,0.1c-0.2,0-0.2-0.1-0.2-0.2c0-0.2-0.1-0.9-0.1-1.2c0.5,0.1,1.2,0.1,2.3,0.1h4.2
			c0.4,0,0.5,0,0.7-0.1c0.1,0,0.1,0,0.2,0c0.1,0,0.1,0,0.2,0.1c0.3,0.2,0.6,0.5,0.9,0.8c0.1,0.1,0.1,0.1,0.1,0.2
			c0,0.1-0.1,0.2-0.2,0.3c-0.1,0.1-0.2,0.2-0.3,0.5c-0.6,1.4-1.3,2.7-2.3,3.9c-1,1.2-2.2,2.2-3.4,2.8c-0.1,0.1-0.2,0.1-0.3,0.1
			c-0.1,0-0.2,0-0.3-0.1c-0.3-0.3-0.7-0.5-1.1-0.7c1.7-0.9,2.8-1.7,3.9-3c0.9-1.1,1.5-2.1,2-3.4H112.6z M118.4,24.4
			c0.1,0,0.1,0,0.2,0c0.4,0.3,0.8,0.8,1.1,1.3c0,0.1,0,0.1,0,0.2l-0.4,0.3c-0.1,0.1-0.1,0-0.2,0c-0.4-0.5-0.7-1-1.2-1.4L118.4,24.4z
			 M119.4,23.6c0.1,0,0.1,0,0.2,0c0.4,0.3,0.9,0.8,1.1,1.2c0,0.1,0.1,0.1,0,0.2l-0.4,0.3c0,0-0.1,0-0.1,0c0,0-0.1,0-0.1-0.1
			c-0.3-0.5-0.7-1-1.2-1.4L119.4,23.6z"/>
		<path class="st1" d="M124.6,27.8c0.1-0.1,0.2,0,0.3,0.1c0.4,0.5,0.8,1.1,1,1.8c0,0.1,0,0.1,0,0.2c0,0.1,0,0.1-0.1,0.2
			c-0.3,0.2-0.5,0.3-0.8,0.4c-0.2,0.1-0.2,0-0.3-0.2c-0.3-0.7-0.6-1.3-1.1-1.9C124,28,124.3,27.9,124.6,27.8z M131.1,27.9
			c0.1,0.1,0.2,0.1,0.2,0.2s0,0.1-0.1,0.2c-0.2,0.2-0.3,0.4-0.4,0.6c-0.5,1.2-1.1,2.3-1.8,3.2c-0.8,1-1.4,1.6-2.5,2.3
			c-0.1,0.1-0.2,0.1-0.3,0.1c-0.1,0-0.1,0-0.2-0.1c-0.3-0.2-0.6-0.4-1-0.5c1.4-0.9,2.1-1.5,2.9-2.5c0.6-0.8,1.3-1.9,1.6-2.9
			c0.2-0.4,0.2-0.7,0.3-1.3C130.3,27.5,130.8,27.7,131.1,27.9z M127,27.2c0.1-0.1,0.2,0,0.3,0.1c0.3,0.4,0.7,1.2,0.9,1.7
			c0.1,0.2,0,0.2-0.1,0.3c-0.2,0.1-0.5,0.2-0.8,0.4c-0.1,0-0.2,0-0.2-0.2c-0.3-0.7-0.5-1.3-1-1.9C126.5,27.4,126.8,27.3,127,27.2z"
			/>
		<path class="st1" d="M142.6,26.2c0.3,0,0.5-0.1,0.6-0.1c0,0,0.1,0,0.2,0s0.1,0,0.2,0.1c0.3,0.2,0.6,0.4,0.8,0.6
			c0.1,0.1,0.2,0.2,0.2,0.3c0,0.1-0.1,0.2-0.1,0.2c-0.2,0.1-0.3,0.3-0.4,0.5c-0.8,1.6-1.6,2.8-2.4,3.7c-1,1.2-2.4,2.3-3.6,3
			c-0.1,0-0.1,0.1-0.2,0.1c-0.1,0-0.2,0-0.3-0.1c-0.3-0.2-0.7-0.4-1.1-0.5c1.9-1,2.8-1.8,4-3c0.9-1,1.5-1.9,2.2-3.4l-2.9,0.1
			c-1,1.2-1.6,1.9-2.2,2.4c-0.1,0.1-0.2,0.1-0.2,0.1c-0.1,0-0.1,0-0.2-0.1c-0.3-0.2-0.7-0.4-1.1-0.5c1.5-1.3,2.5-2.4,3.2-3.5
			c0.4-0.7,0.6-1,0.7-1.6c0.7,0.2,1.1,0.4,1.4,0.6c0.1,0.1,0.1,0.1,0.1,0.2c0,0.1,0,0.1-0.1,0.2c-0.1,0.1-0.2,0.2-0.3,0.3
			c-0.1,0.2-0.2,0.4-0.4,0.6L142.6,26.2z"/>
		<path class="st1" d="M156.9,26.3c0.7,0,0.8,0,1-0.1c0.1,0,0.1-0.1,0.2-0.1c0.1,0,0.1,0,0.2,0.1c0.3,0.3,0.6,0.6,0.9,1
			c0.1,0.1,0.1,0.2,0.1,0.3c0,0.1,0,0.2-0.2,0.2c-0.2,0.2-0.4,0.3-0.6,0.5c-1,1.1-2.1,2.2-3.2,3.2c0.4,0.4,0.7,0.7,1,1.2
			c0.1,0.1,0.1,0.1,0.1,0.2s0,0.1-0.1,0.2c-0.2,0.2-0.5,0.5-0.8,0.7c-0.1,0-0.1,0.1-0.2,0.1s-0.1,0-0.1-0.1
			c-1.2-1.5-2.4-2.7-3.8-3.7c0.2-0.2,0.6-0.6,0.9-0.8c0,0,0.1-0.1,0.1-0.1c0,0,0.1,0,0.2,0.1c0.6,0.5,1.2,0.9,1.7,1.3
			c1-0.9,1.9-1.8,2.7-2.8l-5,0c-0.7,0-1.6,0-2.2,0.1c-0.2,0-0.2-0.1-0.2-0.2c-0.1-0.4-0.1-0.8-0.1-1.3c0.8,0.1,1.8,0.1,2.6,0.1
			H156.9z"/>
		<path class="st1" d="M166.1,30.2c-1.2,0-1.6,0.1-1.7,0.1c-0.1,0-0.2-0.1-0.3-0.2c-0.1-0.3-0.1-0.8-0.2-1.4
			c0.8,0.1,1.4,0.1,2.6,0.1h3.8c0.9,0,1.8,0,2.7,0c0.2,0,0.2,0,0.2,0.2c0,0.4,0,0.8,0,1.1c0,0.1,0,0.2-0.2,0.2c-0.9,0-1.8,0-2.7,0
			H166.1z"/>
		<path class="st1" d="M184.3,26.2c0.3,0,0.5-0.1,0.6-0.1c0,0,0.1,0,0.2,0s0.1,0,0.2,0.1c0.3,0.2,0.6,0.4,0.8,0.6
			c0.1,0.1,0.2,0.2,0.2,0.3c0,0.1-0.1,0.2-0.1,0.2c-0.2,0.1-0.3,0.3-0.4,0.5c-0.8,1.6-1.6,2.8-2.4,3.7c-1,1.2-2.4,2.3-3.6,3
			c-0.1,0-0.1,0.1-0.2,0.1c-0.1,0-0.2,0-0.3-0.1c-0.3-0.2-0.7-0.4-1.1-0.5c1.9-1,2.8-1.8,4-3c0.9-1,1.5-1.9,2.2-3.4l-2.9,0.1
			c-1,1.2-1.6,1.9-2.2,2.4c-0.1,0.1-0.2,0.1-0.2,0.1c-0.1,0-0.1,0-0.2-0.1c-0.3-0.2-0.7-0.4-1.1-0.5c1.5-1.3,2.5-2.4,3.2-3.5
			c0.4-0.7,0.6-1,0.7-1.6c0.7,0.2,1.1,0.4,1.4,0.6c0.1,0.1,0.1,0.1,0.1,0.2c0,0.1,0,0.1-0.1,0.2c-0.1,0.1-0.2,0.2-0.3,0.3
			c-0.1,0.2-0.2,0.4-0.4,0.6L184.3,26.2z"/>
	</g>
</g>
<g>
	<rect x="29" y="22.5" class="st1" width="3.5" height="9.9"/>
	<path class="st1" d="M25.8,30.4c-0.6-0.7-1.4-1-2.4-1.1c0.9-0.3,1.6-0.6,2-1.1c0.4-0.5,0.6-1.1,0.6-2c0-0.7-0.1-1.2-0.4-1.7
		c-0.3-0.5-0.7-0.9-1.2-1.2c-0.5-0.3-1-0.4-1.7-0.6c-0.7-0.1-1.8-0.2-3.5-0.2h-4v14.7h4.1c1.7,0,2.9-0.1,3.6-0.2
		c0.7-0.1,1.3-0.3,1.8-0.6c0.6-0.3,1.1-0.8,1.4-1.4c0.3-0.6,0.5-1.3,0.5-2.1C26.7,31.9,26.4,31,25.8,30.4z M18.9,25.8h0.9
		c1,0,1.7,0.1,2,0.3c0.3,0.2,0.5,0.6,0.5,1.2c0,0.5-0.2,0.9-0.5,1.1c-0.4,0.2-1,0.3-2,0.3h-0.8V25.8z M22.3,34.2
		c-0.4,0.2-1.1,0.4-2,0.4h-1.4v-3.2h1.5c1,0,1.6,0.1,2,0.4c0.4,0.2,0.5,0.7,0.5,1.3C22.9,33.5,22.7,33.9,22.3,34.2z"/>
	<circle class="st1" cx="30.7" cy="35.3" r="2"/>
</g>
</svg>
