<?xml version="1.0" encoding="utf-8"?>
<!-- Generator: Adobe Illustrator 19.2.1, SVG Export Plug-In . SVG Version: 6.00 Build 0)  -->
<svg version="1.1" id="ico_x5F_new" xmlns="http://www.w3.org/2000/svg" xmlns:xlink="http://www.w3.org/1999/xlink" x="0px"
	 y="0px" viewBox="0 0 7.5 31.6" style="enable-background:new 0 0 7.5 31.6;" xml:space="preserve">
<style type="text/css">
	.st0{fill:#FFFFFF;}
	.st1{fill:#FFFFFF;}
</style>
<g>
	<g>
		<path class="st0" d="M0.4,27h6.8c0.2,0,0.4,0.2,0.4,0.4c0,0.2-0.1,0.3-0.2,0.4l-5.8,3.2h5.6c0.2,0,0.4,0.2,0.4,0.4
			s-0.2,0.4-0.4,0.4H0.4c-0.2,0-0.4-0.2-0.4-0.4c0-0.2,0.1-0.3,0.2-0.4L6,27.7H0.4c-0.2,0-0.4-0.2-0.4-0.4C0,27.1,0.2,27,0.4,27z"/>
		<path class="st0" d="M0.1,20.5c0-0.2,0.2-0.3,0.3-0.3c0.2,0,0.4,0.1,0.4,0.3v2.9h2.5v-2.7c0-0.2,0.1-0.4,0.3-0.4
			c0.2,0,0.4,0.1,0.4,0.4v2.7h2.8v-2.9c0-0.2,0.2-0.3,0.3-0.3c0.2,0,0.4,0.1,0.4,0.3v3.2c0,0.3-0.2,0.5-0.5,0.5H0.6
			c-0.3,0-0.4-0.2-0.4-0.5V20.5z"/>
		<path class="st0" d="M0.3,10c0.1,0,0.1,0,0.2,0l6.6,1.6c0.3,0.1,0.4,0.2,0.4,0.5c0,0.2-0.1,0.4-0.4,0.5l-5.7,1.3l5.7,1.3
			c0.3,0.1,0.4,0.2,0.4,0.5c0,0.2-0.1,0.4-0.4,0.5l-6.6,1.6c-0.1,0-0.1,0-0.2,0c-0.2,0-0.3-0.2-0.3-0.4C0,17.1,0.1,17,0.3,17
			l5.9-1.4l-5.7-1.3C0.1,14.2,0,14,0,13.8s0.1-0.4,0.4-0.5L6.1,12l-5.9-1.4c-0.2,0-0.3-0.2-0.3-0.3C0,10.1,0.2,10,0.3,10z"/>
	</g>
</g>
<polygon class="st1" points="0.5,0 7.1,3.4 0.5,6.9 "/>
</svg>
