<?xml version="1.0" encoding="utf-8"?>
<!-- Generator: Adobe Illustrator 19.2.0, SVG Export Plug-In . SVG Version: 6.00 Build 0)  -->
<svg version="1.1" id="sp-btn_x5F_twitter" xmlns="http://www.w3.org/2000/svg" xmlns:xlink="http://www.w3.org/1999/xlink" x="0px"
	 y="0px" viewBox="0 0 102.9 118.7" style="enable-background:new 0 0 102.9 118.7;" xml:space="preserve">
<style type="text/css">
	.st0{fill:#40A2E0;}
</style>
<g>
	<path class="st0" d="M8.5,0.8C8.9,0.9,9,1.2,9,1.5c0,0.4-0.3,0.7-0.7,0.7c-0.3,0-0.4-0.1-0.7-0.2c-1.1-0.4-1.9-0.6-3-0.6
		c-1.7,0-3,1.1-3,2.5s0.7,2,2.1,2.7L6.3,8c1.5,0.8,3.1,1.8,3.1,4.3c0,2.7-2.2,4.3-4.9,4.3c-1.5,0-2.8-0.3-4.1-0.9
		C0.2,15.5,0,15.3,0,14.9c0-0.4,0.3-0.8,0.7-0.8c0.2,0,0.3,0,0.7,0.2c1,0.5,1.9,0.7,3.2,0.7c1.8,0,3.3-1,3.3-2.7
		c0-1.6-0.9-2.3-2.4-3L2.8,7.9C1.1,7.1,0,6,0,4c0-2.3,1.9-4,4.7-4C6.2,0,7.4,0.2,8.5,0.8z"/>
	<path class="st0" d="M17.1,0.8v4.7c0.9-0.5,2-0.8,2.9-0.8c2.5,0,4,1.5,4,4.2v6.9c0,0.5-0.3,0.8-0.8,0.8c-0.5,0-0.8-0.3-0.8-0.8V8.7
		c0-1.7-1-2.6-2.6-2.6c-0.9,0-1.9,0.3-2.7,1v8.7c0,0.5-0.3,0.8-0.8,0.8c-0.4,0-0.8-0.3-0.8-0.8v-15c0-0.5,0.3-0.8,0.8-0.8
		C16.7,0,17.1,0.3,17.1,0.8z"/>
	<path class="st0" d="M38.5,8v7c0,0.4-0.2,0.8-0.7,0.9c-0.9,0.3-2.1,0.5-3.3,0.5c-2.7,0-4.5-1-4.5-3.5s2.1-3.5,4.5-3.5h2.4V8
		c0-1.2-0.9-2-2.4-2c-0.8,0-1.6,0.2-2.3,0.5c-0.3,0.1-0.5,0.3-0.8,0.3c-0.3,0-0.7-0.3-0.7-0.7c0-0.3,0.1-0.5,0.4-0.6
		c0.8-0.5,2-0.9,3.3-0.9C36.7,4.6,38.5,5.7,38.5,8z M34.4,11c-1.7,0-2.9,0.5-2.9,2.1c0,1.6,1.2,2,3,2c0.8,0,1.6-0.1,2.4-0.4V11H34.4
		z"/>
	<path class="st0" d="M49.9,4.8c0.4,0.1,0.6,0.4,0.6,0.8c0,0.4-0.3,0.7-0.8,0.7c-0.3,0-0.7-0.2-1.4-0.2c-0.9,0-1.6,0.6-1.6,1.7v8
		c0,0.5-0.3,0.8-0.8,0.8c-0.4,0-0.8-0.3-0.8-0.8v-8c0-1.9,1.3-3.1,3-3.1C48.9,4.6,49.4,4.7,49.9,4.8z"/>
	<path class="st0" d="M63.9,8.8v1.3c0,0.5-0.4,1-1,1H57v1.2c0,1.5,0.9,2.7,2.7,2.7c1,0,1.8-0.2,2.5-0.5c0.3-0.1,0.4-0.1,0.5-0.1
		c0.4,0,0.7,0.3,0.7,0.7c0,0.3-0.1,0.5-0.4,0.7c-1,0.5-2.4,0.7-3.4,0.7c-2.7,0-4.2-1.8-4.2-4.2V8.8c0-2.5,1.7-4.2,4.2-4.2
		C62.3,4.6,63.9,6.3,63.9,8.8z M57,8.8v0.9h5.4V8.8c0-1.7-0.9-2.8-2.7-2.8S57,7.1,57,8.8z"/>
	<path class="st0" d="M88,9v3.1c0,2.7-1.7,4.4-4.4,4.4c-2.7,0-4.4-1.6-4.4-4.4V9c0-2.8,1.7-4.4,4.4-4.4C86.3,4.6,88,6.3,88,9z
		 M80.6,8.9v3.3c0,1.8,1.2,2.8,2.9,2.8c1.7,0,2.9-1,2.9-2.8V8.9c0-1.8-1.2-2.9-2.9-2.9C81.8,6,80.6,7.1,80.6,8.9z"/>
	<path class="st0" d="M102.9,8.7v7c0,0.5-0.3,0.8-0.8,0.8c-0.5,0-0.8-0.3-0.8-0.8V8.7c0-1.7-0.9-2.6-2.7-2.6c-0.9,0-1.8,0.2-2.7,0.4
		v9.3c0,0.5-0.3,0.8-0.8,0.8c-0.4,0-0.8-0.3-0.8-0.8V6.1c0-0.5,0.3-0.8,0.8-1c1.1-0.3,2.2-0.6,3.5-0.6
		C101.4,4.6,102.9,6.1,102.9,8.7z"/>
</g>
<path class="st0" d="M91,64.9c-2.8,1.2-5.7,2.1-8.8,2.4c3.2-1.9,5.6-4.9,6.8-8.5c-3,1.8-6.3,3-9.8,3.7c-2.8-3-6.8-4.9-11.2-4.9
	c-8.5,0-15.4,6.9-15.4,15.4c0,1.2,0.1,2.4,0.4,3.5C40.1,76,28.7,69.8,21.1,60.5c-1.3,2.3-2.1,4.9-2.1,7.7c0,5.3,2.7,10.1,6.9,12.8
	c-2.5-0.1-4.9-0.8-7-1.9c0,0.1,0,0.1,0,0.2c0,7.5,5.3,13.7,12.4,15.1C30,94.8,28.6,95,27.2,95c-1,0-2-0.1-2.9-0.3
	c2,6.1,7.6,10.6,14.4,10.7c-5.3,4.1-11.9,6.6-19.1,6.6c-1.2,0-2.5-0.1-3.7-0.2c6.8,4.4,14.9,6.9,23.6,6.9
	c28.3,0,43.8-23.5,43.8-43.8c0-0.7,0-1.3,0-2C86.3,70.7,88.9,68,91,64.9z"/>
</svg>
