<?xml version="1.0" encoding="utf-8"?>
<!-- Generator: Adobe Illustrator 19.2.0, SVG Export Plug-In . SVG Version: 6.00 Build 0)  -->
<svg version="1.1" id="sp-btn_x5F_line" xmlns="http://www.w3.org/2000/svg" xmlns:xlink="http://www.w3.org/1999/xlink" x="0px"
	 y="0px" viewBox="0 0 103.7 134.1" style="enable-background:new 0 0 103.7 134.1;" xml:space="preserve">
<style type="text/css">
	.st0{fill:#00C300;}
</style>
<g>
	<g>
		<g>
			<path class="st0" d="M93.4,83.1c0-20.9-20.9-37.9-46.7-37.9C20.9,45.2,0,62.2,0,83.1c0,18.7,16.6,34.4,39,37.4
				c1.5,0.3,3.6,1,4.1,2.3c0.5,1.2,0.3,3,0.1,4.2c0,0-0.5,3.3-0.7,4c-0.2,1.2-0.9,4.6,4,2.5c5-2.1,26.9-15.8,36.7-27.1h0
				C90.1,98.9,93.4,91.4,93.4,83.1z M28.4,95.5h-9.3c-1.3,0-2.4-1.1-2.4-2.5V74.5c0-1.3,1.1-2.4,2.4-2.4c1.4,0,2.4,1.1,2.4,2.4v16.1
				h6.8c1.4,0,2.4,1.1,2.4,2.4C30.9,94.4,29.8,95.5,28.4,95.5z M38,93c0,1.4-1.1,2.5-2.4,2.5c-1.3,0-2.4-1.1-2.4-2.5V74.5
				c0-1.3,1.1-2.4,2.4-2.4c1.3,0,2.4,1.1,2.4,2.4V93z M60.3,93c0,1.1-0.7,2-1.7,2.3c-0.3,0.1-0.5,0.1-0.8,0.1c-0.8,0-1.5-0.4-2-1
				l-9.5-12.9V93c0,1.4-1.1,2.5-2.4,2.5c-1.3,0-2.4-1.1-2.4-2.5V74.5c0-1.1,0.7-2,1.7-2.3c0.3-0.1,0.5-0.1,0.8-0.1
				c0.8,0,1.5,0.4,2,1L55.4,86V74.5c0-1.3,1.1-2.4,2.4-2.4c1.4,0,2.4,1.1,2.4,2.4V93z M75.4,81.3c1.3,0,2.4,1.1,2.4,2.4
				c0,1.3-1.1,2.4-2.4,2.4h-6.8v4.4h6.8c1.3,0,2.4,1.1,2.4,2.4c0,1.4-1.1,2.5-2.4,2.5h-9.3c-1.3,0-2.4-1.1-2.4-2.5v-9.3c0,0,0,0,0,0
				c0,0,0,0,0,0v-9.3c0-1.3,1.1-2.4,2.4-2.4h9.3c1.3,0,2.4,1.1,2.4,2.4c0,1.4-1.1,2.5-2.4,2.5h-6.8v4.4H75.4z"/>
		</g>
	</g>
</g>
<g>
	<path class="st0" d="M9.4,0.8c0.3,0.2,0.5,0.4,0.5,0.7c0,0.4-0.3,0.7-0.7,0.7c-0.3,0-0.4-0.1-0.7-0.2c-1.1-0.4-1.9-0.6-3-0.6
		c-1.7,0-3,1.1-3,2.5s0.7,2,2.1,2.7L7.2,8c1.5,0.8,3.1,1.8,3.1,4.3c0,2.7-2.2,4.3-4.9,4.3c-1.5,0-2.8-0.3-4.1-0.9
		c-0.3-0.2-0.5-0.4-0.5-0.7c0-0.4,0.3-0.8,0.7-0.8c0.2,0,0.3,0,0.7,0.2c1,0.5,1.9,0.7,3.2,0.7c1.8,0,3.3-1,3.3-2.7
		c0-1.6-0.9-2.3-2.4-3L3.6,7.9C2,7.1,0.8,6,0.8,4c0-2.3,1.9-4,4.7-4C7.1,0,8.3,0.2,9.4,0.8z"/>
	<path class="st0" d="M17.9,0.8v4.7c0.9-0.5,2-0.8,2.9-0.8c2.5,0,4,1.5,4,4.2v6.9c0,0.5-0.3,0.8-0.8,0.8c-0.5,0-0.8-0.3-0.8-0.8V8.7
		c0-1.7-1-2.6-2.6-2.6c-0.9,0-1.9,0.3-2.7,1v8.7c0,0.5-0.3,0.8-0.8,0.8c-0.4,0-0.8-0.3-0.8-0.8v-15c0-0.5,0.3-0.8,0.8-0.8
		C17.6,0,17.9,0.3,17.9,0.8z"/>
	<path class="st0" d="M39.3,8v7c0,0.4-0.2,0.8-0.7,0.9c-0.9,0.3-2.1,0.5-3.3,0.5c-2.7,0-4.5-1-4.5-3.5s2.1-3.5,4.5-3.5h2.4V8
		c0-1.2-0.9-2-2.4-2c-0.8,0-1.6,0.2-2.3,0.5c-0.3,0.1-0.5,0.3-0.8,0.3c-0.3,0-0.7-0.3-0.7-0.7c0-0.3,0.1-0.5,0.4-0.6
		c0.8-0.5,2-0.9,3.3-0.9C37.5,4.6,39.3,5.7,39.3,8z M35.3,11c-1.7,0-2.9,0.5-2.9,2.1c0,1.6,1.2,2,3,2c0.8,0,1.6-0.1,2.4-0.4V11H35.3
		z"/>
	<path class="st0" d="M50.8,4.8c0.4,0.1,0.6,0.4,0.6,0.8c0,0.4-0.3,0.7-0.8,0.7c-0.3,0-0.7-0.2-1.4-0.2c-0.9,0-1.6,0.6-1.6,1.7v8
		c0,0.5-0.3,0.8-0.8,0.8c-0.4,0-0.8-0.3-0.8-0.8v-8c0-1.9,1.3-3.1,3-3.1C49.7,4.6,50.2,4.7,50.8,4.8z"/>
	<path class="st0" d="M64.8,8.8v1.3c0,0.5-0.4,1-1,1h-5.9v1.2c0,1.5,0.9,2.7,2.7,2.7c1,0,1.8-0.2,2.5-0.5c0.3-0.1,0.4-0.1,0.5-0.1
		c0.4,0,0.7,0.3,0.7,0.7c0,0.3-0.1,0.5-0.4,0.7c-1,0.5-2.4,0.7-3.4,0.7c-2.7,0-4.2-1.8-4.2-4.2V8.8c0-2.5,1.7-4.2,4.2-4.2
		C63.1,4.6,64.8,6.3,64.8,8.8z M57.8,8.8v0.9h5.4V8.8c0-1.7-0.9-2.8-2.7-2.8S57.8,7.1,57.8,8.8z"/>
	<path class="st0" d="M88.8,9v3.1c0,2.7-1.7,4.4-4.4,4.4c-2.7,0-4.4-1.6-4.4-4.4V9c0-2.8,1.7-4.4,4.4-4.4C87.1,4.6,88.8,6.3,88.8,9z
		 M81.5,8.9v3.3c0,1.8,1.2,2.8,2.9,2.8c1.7,0,2.9-1,2.9-2.8V8.9c0-1.8-1.2-2.9-2.9-2.9C82.7,6,81.5,7.1,81.5,8.9z"/>
	<path class="st0" d="M103.7,8.7v7c0,0.5-0.3,0.8-0.8,0.8c-0.5,0-0.8-0.3-0.8-0.8V8.7c0-1.7-0.9-2.6-2.7-2.6c-0.9,0-1.8,0.2-2.7,0.4
		v9.3c0,0.5-0.3,0.8-0.8,0.8c-0.4,0-0.8-0.3-0.8-0.8V6.1c0-0.5,0.3-0.8,0.8-1c1.1-0.3,2.2-0.6,3.5-0.6
		C102.3,4.6,103.7,6.1,103.7,8.7z"/>
</g>
</svg>
