<?xml version="1.0" encoding="utf-8"?>
<!-- Generator: Adobe Illustrator 19.2.1, SVG Export Plug-In . SVG Version: 6.00 Build 0)  -->
<svg version="1.1" id="sp-btn_x5F_hatena" xmlns="http://www.w3.org/2000/svg" xmlns:xlink="http://www.w3.org/1999/xlink" x="0px"
	 y="0px" viewBox="0 0 113.8 121" style="enable-background:new 0 0 113.8 121;" xml:space="preserve">
<style type="text/css">
	.st0{fill:#00a4d4;}
	.st1{fill:#00a4d4;}
</style>
<g>
	<rect x="81.4" y="52.6" class="st0" width="15.9" height="45.6"/>
	<path class="st0" d="M66.6,89.2c-2.7-3-6.5-4.7-11.3-5.1c4.3-1.2,7.4-2.9,9.4-5.2c2-2.3,2.9-5.3,2.9-9.2c0-3-0.7-5.7-2-8.1
		c-1.3-2.3-3.2-4.2-5.7-5.5c-2.2-1.2-4.8-2-7.8-2.5c-3-0.5-8.4-0.7-16-0.7H17.6v67.7h19.1c7.7,0,13.2-0.3,16.6-0.8
		c3.4-0.5,6.2-1.4,8.5-2.7c2.8-1.5,5-3.6,6.5-6.4c1.5-2.8,2.3-5.9,2.3-9.6C70.7,96.3,69.3,92.2,66.6,89.2z M34.7,68h4
		c4.6,0,7.7,0.5,9.2,1.5c1.6,1,2.4,2.8,2.4,5.4c0,2.4-0.9,4.2-2.5,5.2c-1.7,1-4.8,1.5-9.4,1.5h-3.7V68z M50.5,106.8
		c-1.8,1.1-4.9,1.7-9.3,1.7h-6.5V93.6h6.7c4.5,0,7.6,0.6,9.2,1.7c1.7,1.1,2.5,3.1,2.5,6C53.2,103.9,52.3,105.7,50.5,106.8z"/>
	<circle class="st1" cx="89.4" cy="111.9" r="9.1"/>
</g>
<g>
	<path class="st0" d="M4.6,0.2C7.4,0.2,9,1.9,9,4.5c0,1.6-0.9,2.8-2.2,3.4c1.7,0.7,2.7,2.2,2.7,3.9c0,2.7-1.8,4.5-4.8,4.5H1
		c-0.5,0-1-0.4-1-1V1.2c0-0.6,0.5-1,1-1H4.6z M1.6,1.7v5.5h2.8c1.7,0,3.1-1.1,3.1-2.7c0-1.7-1.1-2.8-2.8-2.8H1.6z M1.6,8.7v6.1h3.1
		c1.9,0,3.2-1.2,3.2-3c0-1.9-1.5-3-3.4-3H1.6z"/>
	<path class="st0" d="M24.4,9v3.1c0,2.7-1.7,4.4-4.4,4.4c-2.7,0-4.4-1.6-4.4-4.4V9c0-2.8,1.7-4.4,4.4-4.4C22.7,4.6,24.4,6.3,24.4,9z
		 M17,8.9v3.3c0,1.8,1.2,2.8,2.9,2.8c1.7,0,2.9-1,2.9-2.8V8.9c0-1.8-1.2-2.9-2.9-2.9C18.2,6,17,7.1,17,8.9z"/>
	<path class="st0" d="M39.2,9v3.1c0,2.7-1.7,4.4-4.4,4.4c-2.7,0-4.4-1.6-4.4-4.4V9c0-2.8,1.7-4.4,4.4-4.4C37.5,4.6,39.2,6.3,39.2,9z
		 M31.9,8.9v3.3c0,1.8,1.2,2.8,2.9,2.8c1.7,0,2.9-1,2.9-2.8V8.9c0-1.8-1.2-2.9-2.9-2.9C33.1,6,31.9,7.1,31.9,8.9z"/>
	<path class="st0" d="M47.2,0.8V9l4.9-4.1c0.2-0.2,0.4-0.2,0.6-0.2c0.4,0,0.7,0.3,0.7,0.8c0,0.2-0.1,0.4-0.3,0.6l-4.7,3.9l5,5.4
		c0.2,0.2,0.2,0.3,0.2,0.5c0,0.4-0.3,0.8-0.8,0.8c-0.3,0-0.4-0.1-0.6-0.3l-5-5.5v5c0,0.5-0.3,0.8-0.8,0.8s-0.8-0.3-0.8-0.8v-15
		C45.6,0.3,46,0,46.4,0C46.9,0,47.2,0.3,47.2,0.8z"/>
	<path class="st0" d="M73.6,8.6v7.1c0,0.5-0.3,0.8-0.8,0.8s-0.8-0.3-0.8-0.8V8.6C72.1,6.9,71,6,69.6,6c-0.9,0-1.7,0.3-2.4,0.9v8.8
		c0,0.5-0.3,0.8-0.8,0.8s-0.8-0.3-0.8-0.8V7.6c0-0.6-0.4-1-0.8-1.3C64.5,6.2,64.1,6,63.5,6c-0.9,0-1.7,0.2-2.6,0.4v9.3
		c0,0.5-0.3,0.8-0.8,0.8c-0.5,0-0.8-0.3-0.8-0.8V6.1c0-0.5,0.3-0.8,0.8-1c1.1-0.3,2.2-0.6,3.5-0.6c1.2,0,2.1,0.3,2.9,1.1
		c0.9-0.7,2.2-1.1,3.2-1.1C72,4.6,73.6,6,73.6,8.6z"/>
	<path class="st0" d="M88.1,8v7c0,0.4-0.2,0.8-0.7,0.9c-0.9,0.3-2.1,0.5-3.3,0.5c-2.7,0-4.5-1-4.5-3.5s2.1-3.5,4.5-3.5h2.4V8
		c0-1.2-0.9-2-2.4-2c-0.8,0-1.6,0.2-2.3,0.5c-0.3,0.1-0.5,0.3-0.8,0.3c-0.3,0-0.7-0.3-0.7-0.7c0-0.3,0.1-0.5,0.4-0.6
		c0.8-0.5,2-0.9,3.3-0.9C86.3,4.6,88.1,5.7,88.1,8z M84.1,11c-1.7,0-2.9,0.5-2.9,2.1c0,1.6,1.2,2,3,2c0.8,0,1.6-0.1,2.4-0.4V11H84.1
		z"/>
	<path class="st0" d="M99.6,4.8c0.4,0.1,0.6,0.4,0.6,0.8c0,0.4-0.3,0.7-0.8,0.7c-0.3,0-0.7-0.2-1.4-0.2c-0.9,0-1.6,0.6-1.6,1.7v8
		c0,0.5-0.3,0.8-0.8,0.8c-0.4,0-0.8-0.3-0.8-0.8v-8c0-1.9,1.3-3.1,3-3.1C98.5,4.6,99,4.7,99.6,4.8z"/>
	<path class="st0" d="M107.4,0.8V9l4.9-4.1c0.2-0.2,0.4-0.2,0.6-0.2c0.4,0,0.7,0.3,0.7,0.8c0,0.2-0.1,0.4-0.3,0.6l-4.7,3.9l5,5.4
		c0.2,0.2,0.2,0.3,0.2,0.5c0,0.4-0.3,0.8-0.8,0.8c-0.3,0-0.4-0.1-0.6-0.3l-5-5.5v5c0,0.5-0.3,0.8-0.8,0.8s-0.8-0.3-0.8-0.8v-15
		c0-0.5,0.3-0.8,0.8-0.8C107.1,0,107.4,0.3,107.4,0.8z"/>
</g>
</svg>
